{"glyphs":{"0":{"ha":897,"x_min":0,"x_max":786,"o":"m 393 1092 q 544 1063 472 1092 q 671 978 615 1033 q 757 850 728 921 q 786 700 786 779 l 786 439 l 786 433 l 786 385 l 786 376 q 757 226 786 297 q 671 99 728 156 q 544 14 615 43 q 393 -15 472 -15 q 242 14 314 -15 q 115 99 171 43 q 29 226 58 156 q 0 376 0 297 l 0 586 l 0 592 l 0 692 l 0 700 q 29 850 0 779 q 115 978 58 921 q 242 1063 171 1033 q 393 1092 314 1092 m 681 700 q 658 810 681 758 q 596 901 635 863 q 505 963 557 940 q 393 986 453 986 q 281 964 333 986 q 190 903 229 942 q 128 812 151 864 q 106 700 106 760 q 107 694 106 697 l 107 693 l 107 439 q 106 436 107 438 q 106 433 106 435 l 106 376 q 128 266 106 318 q 190 175 151 214 q 281 113 229 136 q 393 90 333 90 q 505 113 453 90 q 596 174 557 135 q 658 265 635 213 q 681 376 681 317 l 681 382 l 681 383 l 681 586 l 681 592 l 681 700 z "},"1":{"ha":429,"x_min":-3,"x_max":318,"o":"m 318 1036 l 318 1035 l 318 40 q 303 4 318 19 q 265 -11 288 -11 q 228 4 243 -11 q 214 40 214 19 l 214 935 l 82 844 q 53 835 71 835 q 10 858 25 835 q 1 897 -3 876 q 22 931 4 918 l 236 1079 q 238 1081 236 1079 l 239 1081 q 240 1082 239 1081 l 243 1082 l 243 1083 l 244 1083 l 246 1083 l 247 1085 l 249 1085 q 250 1086 250 1085 l 251 1086 l 253 1086 q 261 1088 256 1088 l 263 1088 l 264 1088 l 265 1088 l 267 1088 l 268 1088 l 269 1088 l 271 1088 l 272 1088 l 274 1088 l 275 1088 q 276 1087 276 1088 q 278 1086 276 1086 l 281 1086 q 282 1085 281 1086 l 283 1085 l 285 1085 q 288 1083 286 1083 q 289 1082 289 1083 l 290 1082 l 292 1082 q 293 1081 292 1081 l 294 1079 l 296 1079 q 297 1078 296 1078 l 299 1076 l 300 1076 q 301 1075 300 1075 l 301 1074 q 303 1072 301 1074 q 304 1071 304 1072 l 306 1071 l 306 1069 l 307 1068 l 308 1067 l 308 1065 l 310 1065 q 311 1064 310 1064 l 311 1063 q 313 1061 311 1063 q 314 1058 313 1060 l 314 1056 q 315 1054 315 1056 l 315 1053 l 315 1051 l 317 1051 l 317 1050 l 317 1049 q 318 1046 317 1047 l 318 1043 l 318 1040 l 318 1038 l 318 1036 z "},"2":{"ha":851,"x_min":-3,"x_max":740,"o":"m 631 411 q 532 298 589 354 q 401 188 475 242 q 330 136 365 160 q 263 92 294 113 l 686 92 q 724 76 708 92 q 740 39 740 61 q 724 1 740 17 q 686 -14 708 -14 l 53 -14 q 19 -2 33 -14 q 1 28 6 10 q 6 64 -3 47 q 31 88 14 81 q 59 101 32 88 q 129 138 86 114 q 227 196 172 161 q 339 274 282 231 q 442 360 389 311 q 537 464 494 408 q 606 583 579 519 q 633 713 633 646 l 633 718 l 633 724 q 613 824 633 776 q 556 906 592 871 q 472 962 521 942 q 369 982 424 982 q 332 997 347 982 q 317 1035 317 1013 q 332 1072 317 1057 q 369 1088 347 1088 q 511 1060 444 1088 q 631 981 578 1033 q 712 863 683 929 q 740 724 740 797 q 740 720 740 721 q 739 718 739 719 q 740 715 739 715 q 740 713 740 714 q 631 411 740 563 z "},"3":{"ha":849,"x_min":0,"x_max":738,"o":"m 629 617 q 710 497 682 564 q 738 357 738 431 l 738 356 q 710 215 738 282 q 629 96 682 149 q 510 15 576 43 q 368 -12 443 -12 q 227 15 293 -12 q 108 96 161 43 q 28 215 56 149 q 0 356 0 282 q 15 393 0 378 q 53 408 31 408 q 90 393 75 408 q 106 356 106 378 q 126 253 106 301 q 183 170 147 206 q 266 114 218 135 q 368 93 314 93 q 471 114 422 93 q 555 170 519 135 q 611 253 590 206 q 632 356 632 301 l 632 357 q 611 459 632 411 q 555 542 590 507 q 472 599 519 578 q 369 619 424 619 q 332 635 347 619 q 317 672 317 650 q 336 713 317 697 q 367 728 350 726 q 446 769 415 735 q 479 862 482 810 q 436 950 476 914 q 344 982 396 986 q 257 940 292 979 q 217 922 239 922 q 182 936 196 922 q 165 973 167 951 q 178 1010 163 994 q 339 1088 243 1083 q 428 1075 385 1090 q 507 1029 471 1060 l 507 1028 q 563 954 543 996 q 584 868 582 913 q 572 780 586 824 q 525 700 557 736 q 522 697 524 697 q 519 693 521 696 q 578 660 550 679 q 629 617 606 642 z "},"4":{"ha":783,"x_min":-8,"x_max":672,"o":"m 619 508 q 657 493 642 508 q 672 456 672 478 q 657 418 672 433 q 619 403 642 403 l 522 403 l 522 40 q 507 4 522 19 q 469 -11 492 -11 q 432 4 447 -11 q 417 40 417 19 l 417 403 l 53 403 q 6 431 22 403 q 10 486 -8 460 l 426 1067 q 428 1068 426 1067 l 429 1069 q 431 1071 429 1069 q 432 1072 431 1072 q 444 1082 436 1076 q 446 1083 446 1082 q 453 1085 449 1085 q 460 1088 457 1086 l 461 1088 l 463 1088 l 464 1088 l 465 1088 l 467 1088 l 469 1088 l 471 1088 l 472 1088 l 474 1088 l 475 1088 l 476 1088 l 478 1088 l 479 1088 l 481 1086 l 482 1086 l 483 1086 l 485 1086 l 485 1085 l 486 1085 l 488 1085 l 489 1085 q 490 1083 489 1083 l 492 1083 l 493 1082 q 494 1081 494 1082 l 496 1081 q 497 1079 496 1081 l 499 1079 l 500 1078 q 501 1076 500 1078 l 503 1076 l 503 1075 l 504 1075 q 506 1074 504 1074 l 507 1072 q 511 1067 510 1069 q 515 1060 513 1064 q 517 1058 517 1060 q 519 1051 518 1056 q 521 1044 521 1047 l 521 1043 l 521 1042 l 522 1040 l 522 1039 l 522 1038 l 522 1036 l 522 1035 l 522 508 l 619 508 m 417 508 l 417 872 l 156 508 l 417 508 z "},"5":{"ha":840,"x_min":0,"x_max":729,"o":"m 622 608 q 702 490 675 556 q 729 350 729 424 q 702 210 729 276 q 622 92 675 144 q 505 13 571 40 q 364 -14 439 -14 q 224 13 290 -14 q 107 92 158 40 q 27 210 54 144 q 0 350 0 276 q 15 386 0 371 q 51 401 31 401 q 89 386 74 401 q 104 350 104 371 q 124 249 104 296 q 180 166 144 201 q 263 110 215 131 q 364 90 310 90 q 465 110 418 90 q 548 166 513 131 q 604 249 583 201 q 625 350 625 296 q 605 451 625 404 q 549 534 585 499 q 467 590 514 569 q 365 610 419 610 l 146 610 q 107 628 122 610 q 94 669 92 647 l 150 1043 q 167 1075 153 1063 q 201 1088 182 1088 l 489 1088 q 525 1073 510 1088 q 540 1036 540 1058 q 525 999 540 1014 q 489 983 510 983 l 246 983 l 207 715 l 365 715 q 505 687 439 714 q 622 608 571 660 z "},"6":{"ha":794,"x_min":0,"x_max":781,"o":"m 781 368 l 781 367 q 750 219 779 289 q 667 94 721 149 q 540 10 611 39 q 390 -19 469 -19 q 240 10 311 -19 q 114 94 169 39 q 30 219 60 150 q 0 367 0 289 l 0 368 l 0 369 l 0 371 l 0 374 l 0 383 l 0 568 l 0 700 l 0 707 q 29 857 0 786 q 114 983 58 928 q 240 1068 169 1039 q 390 1097 311 1097 q 428 1082 413 1097 q 443 1044 443 1067 q 428 1007 443 1022 q 390 992 413 992 q 280 969 332 992 q 189 909 228 947 q 128 819 150 871 q 106 708 106 767 l 106 701 l 106 635 q 110 640 108 638 q 114 644 111 642 q 240 729 169 700 q 390 758 311 758 q 540 729 469 758 q 667 644 611 700 q 751 519 721 589 q 781 371 781 450 l 781 369 l 781 368 m 390 86 q 501 108 449 86 q 592 169 553 131 q 653 259 631 207 q 675 369 675 311 q 653 480 675 428 q 592 570 631 532 q 501 631 553 608 q 390 653 449 653 q 283 631 333 653 q 193 573 232 610 q 131 487 154 536 q 106 381 108 438 l 106 376 l 106 369 q 128 259 106 311 q 189 169 150 207 q 280 108 228 131 q 390 86 332 86 z "},"7":{"ha":688,"x_min":0,"x_max":618,"o":"m 615 1017 l 275 24 q 255 -2 268 7 q 225 -11 242 -11 q 208 -8 214 -11 q 178 18 188 -1 q 175 58 168 38 l 492 982 l 53 982 q 15 997 31 982 q 0 1035 0 1013 q 15 1072 0 1057 q 53 1088 31 1088 l 564 1088 l 565 1088 l 568 1088 l 571 1088 l 574 1088 l 575 1088 q 576 1087 576 1088 q 578 1086 576 1086 l 581 1086 l 582 1085 l 583 1085 l 585 1085 q 588 1083 586 1083 q 589 1082 589 1083 l 590 1082 q 592 1081 590 1082 l 593 1081 l 594 1079 l 596 1079 q 601 1074 599 1076 q 606 1069 603 1072 l 607 1068 l 608 1067 l 608 1065 l 610 1065 l 610 1063 l 611 1063 q 614 1056 613 1060 q 617 1049 615 1053 l 617 1047 l 617 1046 l 617 1044 q 618 1043 618 1044 l 618 1040 l 618 1038 l 618 1035 l 618 1033 l 618 1032 l 618 1031 l 618 1029 l 618 1028 l 618 1026 l 617 1025 l 617 1024 l 617 1021 q 615 1018 615 1019 l 615 1017 z "},"8":{"ha":893,"x_min":0,"x_max":782,"o":"m 551 733 q 667 653 618 703 q 753 526 724 597 q 782 376 782 456 q 753 227 782 297 q 667 100 724 157 q 540 15 611 44 q 390 -14 469 -14 q 240 15 311 -14 q 114 100 169 44 q 29 227 58 157 q 0 376 0 297 q 29 526 0 456 q 114 653 58 597 q 229 733 164 703 q 190 799 204 761 q 175 876 175 836 q 192 960 175 921 q 239 1029 210 1000 q 307 1075 268 1058 q 390 1092 346 1092 q 474 1075 435 1092 q 543 1029 514 1058 q 590 960 572 1000 q 607 876 607 921 q 592 799 607 836 q 551 733 578 761 m 281 876 q 309 804 281 835 q 378 768 338 774 l 390 768 l 404 768 q 472 804 444 774 q 500 876 500 835 q 468 954 500 922 q 390 986 436 986 q 313 954 346 986 q 281 876 281 922 m 390 92 q 501 114 449 92 q 592 175 553 136 q 653 266 631 214 q 676 376 676 318 q 656 484 676 433 q 598 573 635 535 q 512 635 561 611 q 407 661 463 658 l 390 661 l 374 661 q 269 635 318 658 q 184 573 221 611 q 126 484 147 535 q 106 376 106 433 q 128 266 106 318 q 189 175 150 214 q 280 114 228 136 q 390 92 332 92 z "},"9":{"ha":892,"x_min":0,"x_max":781,"o":"m 781 506 l 781 504 l 781 372 l 781 365 q 751 215 781 286 q 667 89 722 144 q 540 4 611 33 q 390 -25 469 -25 q 353 -10 368 -25 q 338 28 338 6 q 353 65 338 50 q 390 81 368 81 q 501 103 449 81 q 592 164 553 125 q 653 254 631 203 q 675 364 675 306 l 675 371 l 675 438 l 667 429 q 540 344 611 374 q 390 314 469 314 q 240 344 311 314 q 114 429 169 374 q 30 553 60 483 q 0 701 0 624 l 0 703 l 0 704 l 0 707 q 31 854 1 785 q 114 978 60 924 q 240 1063 169 1033 q 390 1092 311 1092 q 540 1063 469 1092 q 667 978 611 1033 q 751 853 721 924 q 781 706 781 783 l 781 704 l 781 703 l 781 699 l 781 690 l 781 506 m 390 419 q 498 441 447 419 q 588 499 549 463 q 649 585 626 536 q 675 692 672 635 l 675 696 l 675 697 l 675 703 l 675 704 q 653 814 675 763 q 592 903 631 865 q 501 964 553 942 q 390 986 449 986 q 280 964 332 986 q 189 903 228 942 q 128 813 150 865 q 106 703 106 761 q 128 593 106 644 q 189 503 150 542 q 280 442 228 464 q 390 419 332 419 z "}," ":{"ha":346,"x_min":0,"x_max":0,"o":""},"D":{"ha":893,"x_min":0,"x_max":782,"o":"m 51 -14 q 15 1 29 -14 q 0 38 0 15 l 1 1036 q 16 1073 1 1058 q 53 1088 31 1088 l 390 1088 q 540 1058 469 1088 q 667 974 611 1029 q 753 847 724 918 q 782 697 782 776 l 782 543 q 781 535 782 538 l 781 529 l 781 376 q 751 226 781 297 q 667 100 722 156 q 540 15 611 44 q 390 -14 469 -14 q 353 1 368 -14 q 339 38 339 15 q 353 74 339 58 q 390 89 368 89 q 502 112 450 89 q 593 174 554 135 q 655 265 632 213 q 678 376 678 317 l 678 529 q 679 539 678 536 q 678 543 678 540 l 678 697 q 655 809 678 757 q 593 900 632 861 q 502 962 554 939 q 390 985 450 985 l 104 985 l 103 38 q 88 1 103 15 q 51 -14 74 -14 m 429 340 q 414 303 429 318 q 376 289 399 289 q 340 303 356 289 q 325 340 325 318 l 325 671 q 340 707 325 692 q 376 722 356 722 q 414 707 399 722 q 429 671 429 692 l 429 340 z "},"E":{"ha":756,"x_min":0,"x_max":644,"o":"m 0 538 l 0 544 l 0 699 q 29 848 0 778 q 114 974 58 918 q 241 1059 171 1029 q 390 1089 311 1089 l 592 1089 q 629 1074 614 1089 q 644 1036 644 1058 q 629 1000 644 1015 q 592 985 614 985 l 390 985 q 278 963 331 985 q 188 901 226 940 q 126 810 149 863 q 103 699 103 758 l 103 589 l 382 589 q 419 574 404 589 q 433 538 433 558 q 419 501 433 515 q 382 486 404 486 l 104 486 l 104 376 q 127 265 104 317 q 189 174 150 213 q 280 112 228 135 q 392 89 332 89 l 593 89 q 629 74 614 89 q 644 38 644 60 q 629 1 644 17 q 593 -14 614 -14 l 392 -14 q 242 15 313 -14 q 115 100 171 44 q 30 226 60 156 q 0 376 0 297 l 0 531 l 0 533 l 0 538 z "},"F":{"ha":756,"x_min":0,"x_max":644,"o":"m 0 499 l 0 506 l 0 697 q 29 847 0 776 q 114 974 58 918 q 241 1058 171 1029 q 390 1088 311 1088 l 592 1088 q 629 1073 614 1088 q 644 1036 644 1058 q 629 1000 644 1015 q 592 985 614 985 l 390 985 q 278 962 331 985 q 188 900 226 939 q 126 809 149 861 q 103 697 103 757 l 103 589 l 382 589 q 419 574 404 589 q 433 536 433 558 q 419 500 433 515 q 382 485 404 485 l 104 485 l 104 38 q 89 1 104 15 q 51 -14 74 -14 q 15 1 31 -14 q 0 38 0 15 l 0 499 z "},"G":{"ha":893,"x_min":0,"x_max":782,"o":"m 0 708 q 29 858 0 788 q 114 985 58 929 q 241 1069 171 1040 q 390 1099 311 1099 q 540 1069 469 1099 q 668 985 611 1040 q 753 858 724 929 q 782 708 782 788 q 767 672 782 686 q 731 657 751 657 q 694 672 708 657 q 679 708 679 686 q 656 820 679 768 q 594 911 633 872 q 503 973 556 950 q 390 996 450 996 q 278 973 331 996 q 188 911 226 950 q 126 820 149 872 q 103 710 103 768 l 103 708 l 103 703 l 103 568 l 103 375 l 103 369 l 103 368 q 126 258 103 310 q 188 167 149 206 q 278 105 226 128 q 390 82 331 82 q 491 100 443 82 q 576 150 539 118 q 640 225 614 182 q 674 318 665 268 l 400 318 q 364 333 379 318 q 349 369 349 349 q 364 406 349 392 q 400 421 379 421 l 731 421 q 767 406 751 421 q 782 369 782 392 q 753 219 782 290 q 668 93 724 149 q 540 8 611 38 q 390 -21 469 -21 q 241 8 311 -21 q 114 93 171 38 q 29 219 58 149 q 0 369 0 290 l 0 376 l 0 568 l 0 701 l 0 708 z "},"H":{"ha":810,"x_min":0,"x_max":699,"o":"m 51 -14 q 15 1 31 -14 q 0 38 0 15 l 0 1036 q 15 1073 0 1058 q 51 1088 31 1088 q 88 1073 74 1088 q 103 1036 103 1058 l 103 597 l 596 597 l 596 1036 q 611 1073 596 1058 q 647 1088 626 1088 q 684 1073 669 1088 q 699 1036 699 1058 l 699 38 q 684 1 699 15 q 647 -14 669 -14 q 611 1 626 -14 q 596 38 596 15 l 596 494 l 103 494 l 103 38 q 88 1 103 15 q 51 -14 74 -14 z "},"I":{"ha":214,"x_min":0,"x_max":103,"o":"m 51 -14 q 15 1 31 -14 q 0 38 0 15 l 0 1036 q 15 1073 0 1058 q 51 1088 31 1088 q 88 1073 74 1088 q 103 1036 103 1058 l 103 38 q 88 1 103 15 q 51 -14 74 -14 z "},"J":{"ha":893,"x_min":0,"x_max":782,"o":"m 392 -15 q 242 15 313 -15 q 114 100 171 44 q 29 226 58 156 q 0 375 0 296 q 15 413 0 397 q 51 428 31 428 q 88 413 74 428 q 103 375 103 397 q 126 265 103 317 q 188 174 149 213 q 279 112 226 135 q 392 89 332 89 q 503 111 451 89 q 594 172 556 133 q 656 263 633 211 q 679 375 679 315 q 678 378 679 376 q 678 382 678 379 l 679 1036 q 694 1073 679 1058 q 731 1088 708 1088 q 767 1073 751 1088 q 782 1036 782 1058 l 782 383 l 782 382 l 782 375 q 753 226 782 296 q 668 100 724 156 q 541 15 611 44 q 392 -15 471 -15 z "},"K":{"ha":756,"x_min":0,"x_max":647,"o":"m 635 68 q 644 29 647 50 q 624 -4 640 8 q 593 -14 610 -14 q 551 7 565 -14 l 186 506 q 176 544 174 524 q 197 578 179 565 q 235 588 214 592 q 269 567 257 585 l 635 68 m 51 -14 q 15 1 31 -14 q 0 38 0 15 l 0 1036 q 15 1073 0 1058 q 51 1088 31 1088 q 88 1073 74 1088 q 103 1036 103 1058 l 103 654 l 558 1074 q 594 1088 574 1089 q 631 1071 615 1086 q 644 1035 646 1056 q 628 999 643 1014 l 103 514 l 103 38 q 88 1 103 15 q 51 -14 74 -14 z "},"L":{"ha":756,"x_min":0,"x_max":644,"o":"m 390 -14 q 241 15 311 -14 q 114 100 171 44 q 29 226 58 156 q 0 376 0 297 l 0 1036 q 15 1073 0 1058 q 51 1088 31 1088 q 88 1073 74 1088 q 103 1036 103 1058 l 103 376 q 126 265 103 317 q 188 174 149 213 q 278 112 226 135 q 390 89 331 89 l 592 89 q 629 74 614 89 q 644 38 644 58 q 629 1 644 15 q 592 -14 614 -14 l 390 -14 l 390 -14 z "},"M":{"ha":1572,"x_min":0,"x_max":1461,"o":"m 0 697 q 29 847 0 776 q 114 974 58 918 q 241 1058 171 1029 q 390 1088 311 1088 q 540 1058 469 1088 q 668 974 611 1029 q 702 934 686 954 q 731 892 718 914 q 793 974 757 938 q 919 1058 849 1029 q 1069 1088 990 1088 q 1219 1058 1149 1088 q 1346 974 1290 1029 q 1432 847 1403 918 q 1461 697 1461 776 l 1461 38 q 1446 1 1461 15 q 1410 -14 1431 -14 q 1372 1 1388 -14 q 1357 38 1357 15 l 1357 697 q 1335 809 1357 757 q 1274 900 1313 861 q 1182 962 1235 939 q 1069 985 1129 985 q 958 963 1010 985 q 867 901 906 940 q 805 810 828 863 q 782 699 782 758 l 782 693 l 782 692 l 782 38 q 767 1 782 15 q 731 -14 753 -14 q 694 1 708 -14 q 679 38 679 15 l 679 697 q 656 809 679 757 q 594 900 633 861 q 503 962 556 939 q 390 985 450 985 q 278 963 331 985 q 188 901 226 940 q 126 810 149 863 q 103 699 103 758 q 104 693 103 694 l 104 692 l 104 38 q 89 1 104 15 q 51 -14 74 -14 q 15 1 31 -14 q 0 38 0 15 l 0 690 l 0 697 z "},"N":{"ha":894,"x_min":0,"x_max":783,"o":"m 0 697 q 29 847 0 776 q 115 974 58 918 q 242 1058 171 1029 q 392 1088 313 1088 q 542 1058 471 1088 q 669 974 613 1029 q 754 847 725 918 q 783 697 783 776 l 783 35 q 769 -1 783 14 q 732 -17 754 -17 q 695 -1 710 -17 q 681 35 681 14 l 681 697 q 658 809 681 757 q 596 900 635 861 q 504 962 557 939 q 392 985 451 985 q 280 962 332 985 q 188 900 228 939 q 126 809 149 861 q 103 697 103 757 q 104 692 104 696 l 104 690 l 104 35 q 89 -1 104 14 q 51 -17 74 -17 q 15 -1 31 -17 q 0 35 0 14 l 0 689 l 0 697 z "},"O":{"ha":899,"x_min":0,"x_max":788,"o":"m 393 -18 q 242 12 314 -18 q 115 97 171 42 q 29 225 58 154 q 0 375 0 296 l 0 585 l 0 592 l 0 692 l 0 699 q 29 849 0 778 q 115 976 58 921 q 242 1063 171 1033 q 393 1092 314 1092 q 544 1063 472 1092 q 672 976 615 1033 q 758 849 728 921 q 788 699 788 778 l 788 438 l 788 432 l 788 383 l 788 375 q 758 225 788 296 q 672 97 728 154 q 544 12 615 42 q 393 -18 472 -18 m 104 375 q 127 263 104 315 q 189 172 150 211 q 281 109 228 132 q 393 86 333 86 q 506 109 453 86 q 598 171 558 132 q 660 263 638 210 q 683 375 683 315 q 682 381 683 378 l 682 382 l 682 585 q 683 588 682 588 q 683 592 683 589 l 683 699 q 660 811 683 758 q 598 903 638 864 q 506 965 558 942 q 393 988 453 988 q 281 965 333 988 q 190 903 229 942 q 127 812 150 864 q 104 700 104 760 l 104 693 l 104 438 l 104 432 l 104 375 m 393 294 q 357 310 372 294 q 342 346 342 325 l 342 679 q 357 715 342 700 q 393 731 372 731 q 431 715 415 731 q 446 679 446 700 l 446 346 q 431 310 446 325 q 393 294 415 294 z "},"P":{"ha":893,"x_min":0,"x_max":782,"o":"m 0 692 l 0 699 q 29 848 0 778 q 114 974 58 918 q 240 1058 169 1029 q 390 1088 311 1088 q 540 1058 469 1088 q 667 974 611 1029 q 752 848 722 918 q 782 699 782 778 l 782 697 q 752 547 782 618 q 667 421 722 476 q 541 336 611 365 q 392 307 471 307 q 355 322 369 307 q 340 358 340 338 q 355 395 340 381 q 392 410 369 410 q 503 433 451 410 q 594 494 556 456 q 656 585 633 533 q 678 697 678 638 l 678 699 q 655 809 678 757 q 593 900 632 861 q 502 962 554 939 q 390 985 450 985 q 278 963 331 985 q 188 901 226 940 q 126 810 149 863 q 103 699 103 758 q 104 693 104 697 l 104 692 l 104 39 q 89 1 104 17 q 51 -14 74 -14 q 15 1 31 -14 q 0 39 0 17 l 0 690 l 0 692 z "},"Q":{"ha":893,"x_min":0,"x_max":782,"o":"m 339 -10 q 114 101 210 7 q 29 228 58 157 q 0 378 0 299 l 0 586 l 0 592 l 0 692 l 0 699 q 29 849 0 778 q 114 975 58 919 q 240 1060 169 1031 q 390 1089 311 1089 q 540 1060 469 1089 q 667 975 611 1031 q 752 849 722 919 q 782 699 782 778 l 782 439 q 781 433 782 436 l 781 385 q 782 378 782 383 q 752 228 782 299 q 667 101 722 157 q 564 27 621 56 q 443 -10 507 -1 l 443 -125 q 428 -162 443 -147 q 390 -178 413 -178 q 354 -162 369 -178 q 339 -125 339 -147 l 339 -10 m 103 378 q 121 278 103 325 q 171 193 139 231 q 246 130 203 156 q 339 96 289 104 l 339 204 q 354 241 339 226 q 390 256 369 256 q 428 241 413 256 q 443 204 443 226 l 443 96 q 536 130 493 104 q 610 192 579 156 q 660 276 642 229 q 678 376 678 324 l 678 383 l 678 586 l 678 592 l 678 699 q 655 810 678 758 q 593 901 632 863 q 502 963 554 940 q 390 985 450 985 q 278 963 331 985 q 188 901 226 940 q 126 810 149 863 q 103 700 103 758 q 104 694 104 699 l 104 693 l 104 439 q 103 433 104 435 l 103 378 z "},"R":{"ha":893,"x_min":0,"x_max":782,"o":"m 0 699 q 29 848 0 778 q 114 974 58 918 q 240 1058 169 1029 q 390 1088 311 1088 q 540 1058 469 1088 q 667 974 611 1029 q 752 848 722 918 q 782 699 782 778 l 782 697 q 752 547 782 618 q 667 421 722 476 q 504 324 597 351 l 765 76 q 781 40 781 61 q 767 3 782 18 q 729 -14 751 -14 q 694 1 710 -14 l 356 321 q 341 347 344 332 q 343 378 338 363 q 392 410 357 410 q 503 433 451 410 q 594 494 556 456 q 656 585 633 533 q 678 697 678 638 l 678 699 q 655 809 678 757 q 593 900 632 861 q 502 962 554 939 q 390 985 450 985 q 278 963 331 985 q 188 901 226 940 q 126 810 149 863 q 103 699 103 758 q 104 692 104 697 l 104 39 q 89 1 104 17 q 51 -14 74 -14 q 15 1 31 -14 q 0 39 0 17 l 0 692 l 0 699 z "},"S":{"ha":851,"x_min":0,"x_max":740,"o":"m 0 361 q 15 397 0 382 q 51 411 31 411 q 89 397 74 411 q 104 360 104 382 q 103 353 104 354 q 124 250 103 299 q 182 166 146 201 q 267 110 218 131 q 369 89 315 89 q 474 110 425 89 q 558 167 522 131 q 615 251 594 203 q 636 354 636 300 q 615 458 636 410 q 558 543 594 507 q 474 600 522 579 q 371 621 425 621 l 367 621 q 215 675 275 625 q 158 745 179 704 q 132 832 136 786 q 141 923 128 879 q 185 1003 154 967 q 256 1062 215 1040 q 342 1088 297 1083 q 431 1078 388 1092 q 513 1035 475 1065 q 531 999 529 1021 q 519 961 533 978 q 484 943 506 946 q 447 956 463 940 q 353 984 406 989 q 265 938 300 979 q 264 937 264 938 q 263 936 264 936 q 235 842 231 896 q 282 754 242 789 q 371 725 315 728 l 372 725 q 513 697 447 724 q 632 617 579 669 q 713 497 685 564 q 740 354 740 429 q 713 213 740 279 q 632 93 685 146 q 512 13 579 40 q 369 -15 444 -15 q 228 13 294 -15 q 108 93 161 40 q 28 213 56 146 q 0 354 0 279 l 0 361 l 0 361 z "},"T":{"ha":838,"x_min":0,"x_max":726,"o":"m 363 -14 q 326 1 342 -14 q 311 39 311 17 l 311 985 l 51 985 q 15 999 31 985 q 0 1036 0 1014 q 15 1073 0 1058 q 51 1088 31 1088 l 674 1088 q 711 1073 696 1088 q 726 1036 726 1058 q 711 999 726 1014 q 674 985 696 985 l 415 985 l 415 39 q 400 1 415 17 q 363 -14 385 -14 z "},"U":{"ha":893,"x_min":0,"x_max":782,"o":"m 0 1036 q 15 1073 0 1058 q 51 1088 31 1088 q 88 1073 74 1088 q 103 1036 103 1058 l 103 376 q 126 265 103 317 q 188 174 149 213 q 278 113 226 135 q 390 90 331 90 q 502 113 450 90 q 593 174 554 135 q 655 265 632 213 q 678 375 678 317 l 678 376 l 678 381 l 678 382 l 678 1036 q 693 1073 678 1058 q 729 1088 708 1088 q 766 1073 751 1088 q 781 1036 781 1058 l 781 385 q 781 381 781 382 q 782 376 782 379 q 752 227 782 297 q 667 101 722 157 q 540 16 611 46 q 390 -14 469 -14 q 240 16 311 -14 q 114 101 169 46 q 29 227 58 157 q 0 376 0 297 l 0 1036 l 0 1036 z "},"V":{"ha":899,"x_min":-4,"x_max":792,"o":"m 3 1019 q 6 1058 -4 1039 q 35 1085 15 1078 q 74 1083 56 1092 q 100 1053 93 1074 l 393 199 l 686 1053 q 713 1083 693 1074 q 751 1085 732 1092 q 782 1058 772 1078 q 785 1019 792 1039 l 442 22 l 442 21 l 442 19 l 442 18 l 440 18 q 440 16 440 17 q 439 14 439 15 q 438 13 439 13 q 438 11 438 13 q 435 8 436 10 q 433 6 435 7 l 432 4 q 431 3 432 3 l 431 1 l 429 1 l 429 0 q 426 -1 428 0 l 425 -3 q 424 -4 424 -3 l 422 -4 q 420 -6 421 -6 q 418 -7 419 -6 q 417 -8 418 -7 l 415 -8 q 413 -10 414 -10 q 410 -11 411 -10 l 408 -11 l 407 -11 q 406 -12 406 -11 l 404 -12 l 403 -12 l 401 -12 l 400 -12 l 399 -12 l 397 -14 l 396 -14 l 393 -14 l 392 -14 l 390 -14 l 389 -14 l 389 -12 l 388 -12 l 386 -12 l 385 -12 l 383 -12 l 382 -12 l 381 -12 l 381 -11 l 379 -11 l 378 -11 l 376 -11 l 375 -10 l 374 -10 q 372 -8 374 -10 l 371 -8 l 369 -8 l 369 -7 l 368 -7 q 366 -6 367 -6 q 364 -4 365 -6 q 363 -3 363 -4 l 361 -3 l 361 -1 l 360 -1 q 358 0 360 0 l 357 1 q 356 3 357 3 l 356 4 q 352 7 353 6 q 349 11 351 8 l 349 14 q 346 18 346 17 q 344 19 346 18 l 344 21 l 344 22 l 3 1019 z "},"W":{"ha":1199,"x_min":-4,"x_max":1133,"o":"m 1093 1085 q 1124 1058 1114 1078 q 1126 1019 1133 1039 l 785 22 q 783 21 785 21 l 783 19 l 783 18 q 782 16 782 17 q 781 14 782 15 q 780 13 781 13 q 779 11 779 13 q 777 8 778 10 q 775 6 776 7 q 774 4 775 4 l 774 3 q 772 1 772 3 l 771 1 l 771 0 q 768 -1 769 0 l 767 -3 q 765 -4 765 -3 q 760 -7 765 -4 q 758 -8 760 -7 l 757 -8 q 754 -10 756 -10 q 753 -11 753 -10 l 751 -11 l 750 -11 l 749 -11 q 747 -12 747 -11 l 746 -12 l 744 -12 l 743 -12 l 742 -12 l 740 -12 q 739 -14 740 -14 l 738 -14 l 736 -14 l 735 -14 l 733 -14 l 731 -14 q 729 -12 731 -12 l 728 -12 l 726 -12 l 725 -12 l 724 -12 l 722 -12 l 722 -11 l 721 -11 l 718 -11 q 717 -10 718 -10 l 715 -10 q 714 -8 715 -10 l 713 -8 l 711 -8 l 711 -7 l 710 -7 q 708 -6 708 -6 q 706 -4 707 -6 q 704 -3 704 -4 l 703 -3 l 703 -1 l 701 -1 q 700 0 701 0 q 699 1 700 0 q 697 3 699 3 l 697 4 q 692 11 694 6 q 690 14 690 13 q 689 16 689 15 q 688 18 689 17 q 686 19 688 18 l 686 21 l 686 22 l 564 378 l 443 22 l 442 21 l 442 19 l 442 18 l 440 18 q 440 16 440 17 q 439 14 439 15 q 438 13 439 13 q 438 11 438 13 q 435 8 436 10 q 433 6 435 7 l 432 4 q 431 3 432 3 l 431 1 l 429 1 q 428 0 429 1 l 426 -1 l 425 -3 q 424 -4 424 -3 l 422 -4 q 420 -6 421 -6 q 418 -7 419 -6 q 417 -8 418 -7 l 415 -8 q 413 -10 414 -10 q 410 -11 411 -10 l 408 -11 l 407 -11 q 406 -12 406 -11 l 404 -12 l 403 -12 l 401 -12 l 400 -12 l 399 -12 l 397 -14 l 396 -14 l 393 -14 l 392 -14 l 390 -14 l 389 -14 l 389 -12 l 388 -12 l 386 -12 l 385 -12 l 383 -12 l 382 -12 l 381 -12 l 381 -11 l 379 -11 l 378 -11 l 376 -11 q 375 -10 376 -10 l 374 -10 q 372 -8 374 -10 l 371 -8 l 369 -8 l 369 -7 l 368 -7 q 366 -6 367 -6 q 364 -4 365 -6 q 363 -3 363 -4 l 361 -3 l 361 -1 l 360 -1 q 358 0 360 0 l 357 1 q 356 3 357 3 l 356 4 q 352 7 353 6 q 349 11 351 8 l 349 14 q 346 18 346 17 q 344 19 346 18 l 344 21 l 344 22 l 3 1019 q 6 1058 -4 1039 q 35 1085 15 1078 q 74 1083 56 1092 q 100 1053 93 1074 l 393 199 l 686 1053 q 713 1083 693 1074 q 751 1085 732 1092 q 782 1058 772 1078 q 785 1019 792 1039 l 619 538 l 735 199 l 1028 1053 q 1054 1083 1035 1074 q 1093 1085 1074 1092 z "},"X":{"ha":831,"x_min":-4,"x_max":722,"o":"m 360 636 l 622 1064 q 654 1087 633 1082 q 694 1081 675 1092 q 717 1049 713 1069 q 711 1008 722 1028 l 419 538 l 711 65 q 717 26 722 47 q 694 -6 713 6 q 667 -14 682 -14 q 642 -7 654 -14 q 622 11 629 0 l 360 439 l 96 11 q 51 -14 81 -14 q 25 -6 38 -14 q 1 26 6 6 q 7 65 -4 47 l 299 538 l 7 1008 q 1 1049 -4 1028 q 25 1081 6 1069 q 64 1087 43 1092 q 96 1064 85 1082 l 360 636 z "},"Y":{"ha":733,"x_min":-4,"x_max":722,"o":"m 360 -14 q 322 1 338 -14 q 307 39 307 17 l 307 522 l 7 1008 q 1 1049 -4 1028 q 25 1081 6 1069 q 64 1087 43 1092 q 96 1064 85 1082 l 360 636 l 622 1064 q 654 1087 633 1082 q 694 1081 675 1092 q 717 1049 713 1069 q 711 1008 722 1028 l 411 522 l 411 39 q 396 1 411 17 q 360 -14 381 -14 z "},"Z":{"ha":838,"x_min":0,"x_max":726,"o":"m 674 90 q 711 75 696 90 q 726 39 726 60 q 711 1 726 17 q 674 -14 696 -14 l 51 -14 l 50 -14 l 49 -14 q 47 -12 49 -14 l 46 -12 l 44 -12 l 42 -12 l 40 -12 q 38 -11 40 -12 l 35 -11 l 35 -10 l 31 -10 l 31 -8 q 28 -7 29 -8 q 25 -6 25 -7 q 24 -5 24 -6 q 22 -4 24 -4 q 21 -3 21 -4 q 19 -1 19 -3 l 18 -1 q 17 0 18 -1 l 15 1 q 14 4 14 3 q 11 6 13 4 q 10 7 11 6 q 8 10 10 8 q 7 11 8 10 l 7 13 l 6 14 l 6 15 l 4 17 l 4 19 l 3 19 l 3 22 q 1 24 3 22 l 1 26 l 1 29 l 0 29 l 0 31 l 0 32 l 0 33 l 0 35 l 0 36 l 0 39 q 1 51 0 47 l 1 53 l 3 54 q 4 60 3 57 q 7 65 6 63 l 574 985 l 178 985 q 142 999 157 985 q 126 1036 126 1014 q 142 1073 126 1058 q 178 1088 157 1088 l 664 1088 l 665 1088 q 694 1081 679 1089 q 717 1049 713 1069 q 711 1008 722 1028 l 144 90 l 674 90 l 674 90 z "},"a":{"ha":919,"x_min":0,"x_max":781,"o":"m 390 475 q 426 460 411 475 q 440 425 440 446 l 440 297 q 426 262 440 276 q 390 247 411 247 q 355 262 369 247 q 340 297 340 276 l 340 425 q 355 460 340 446 q 390 475 369 475 m 679 713 q 694 748 679 733 q 731 763 710 763 q 766 748 751 763 q 781 713 781 733 l 781 35 q 766 -1 781 14 q 731 -15 751 -15 q 694 -1 710 -15 q 679 35 679 14 l 679 114 q 665 99 675 108 q 540 14 610 43 q 390 -15 469 -15 q 240 14 311 -15 q 114 99 169 43 q 31 223 60 153 q 0 371 1 293 l 0 372 l 0 374 l 0 376 q 31 524 1 454 q 114 647 60 593 q 240 732 169 703 q 390 761 311 761 q 540 732 469 761 q 665 647 610 703 q 673 640 669 644 q 679 633 676 636 l 679 713 m 390 85 q 503 108 450 85 q 594 169 556 131 q 656 261 633 208 q 679 374 679 314 q 656 485 679 433 q 594 576 633 538 q 503 638 556 615 q 390 661 450 661 q 280 640 332 661 q 188 581 228 618 q 125 492 149 543 q 100 383 101 442 l 100 381 l 100 374 l 100 372 q 123 260 100 313 q 185 169 146 208 q 278 108 225 131 q 390 85 331 85 z "},"b":{"ha":892,"x_min":0,"x_max":781,"o":"m 781 372 q 750 224 779 294 q 665 100 721 154 q 540 15 610 44 q 390 -14 469 -14 q 240 15 311 -14 q 114 100 169 44 q 31 224 60 154 q 0 372 1 294 l 0 374 l 0 953 q 15 988 0 974 q 50 1003 29 1003 q 85 988 71 1003 q 100 953 100 974 l 100 388 l 100 382 l 100 375 q 123 263 100 315 q 185 171 146 210 q 278 109 225 132 q 390 86 331 86 q 503 109 450 86 q 594 171 556 132 q 656 263 633 210 q 679 375 679 315 q 656 487 679 435 q 594 578 633 539 q 503 640 556 617 q 390 663 450 663 q 355 677 369 663 q 340 713 340 692 q 355 748 340 733 q 390 763 369 763 q 540 733 469 763 q 665 649 610 704 q 750 525 721 594 q 781 378 779 456 l 781 375 l 781 374 l 781 372 l 781 372 z "},"c":{"ha":778,"x_min":0,"x_max":678,"o":"m 388 668 q 276 645 328 668 q 185 583 224 622 q 123 490 146 543 q 100 378 100 438 q 123 266 100 318 q 185 174 146 214 q 276 112 224 135 q 389 89 329 89 q 499 111 447 89 q 592 174 551 133 q 627 189 607 189 q 663 174 647 189 q 678 138 678 158 q 663 103 678 118 q 538 18 608 47 q 390 -11 468 -11 l 389 -11 l 388 -11 l 386 -11 q 238 18 308 -11 q 114 103 168 47 q 29 228 58 158 q 0 378 0 299 q 29 528 0 457 q 114 654 58 599 q 238 739 168 710 q 386 768 308 768 l 388 768 l 389 768 l 392 768 q 539 738 469 767 q 663 654 608 708 q 678 619 678 639 q 663 583 678 599 q 626 568 647 568 q 592 583 607 568 q 397 668 511 664 l 394 668 l 389 668 l 388 668 l 388 668 z "},"d":{"ha":883,"x_min":0,"x_max":781,"o":"m 390 -14 q 240 15 311 -14 q 114 100 169 44 q 31 224 60 154 q 0 372 1 294 l 0 374 l 0 375 l 0 378 q 31 524 1 454 q 114 649 60 594 q 240 733 169 704 q 390 763 311 763 q 426 748 411 763 q 440 713 440 733 q 426 677 440 692 q 390 663 411 663 q 278 640 331 663 q 185 578 225 617 q 123 487 146 539 q 100 375 100 435 q 123 263 100 315 q 185 171 146 210 q 278 109 225 132 q 390 86 331 86 q 503 109 450 86 q 594 171 556 132 q 656 263 633 210 q 679 375 679 315 l 679 381 l 679 386 l 679 953 q 694 988 679 974 q 731 1003 710 1003 q 765 988 750 1003 q 781 953 781 974 l 781 374 l 781 372 q 750 224 779 294 q 665 100 721 154 q 540 15 610 44 q 390 -14 469 -14 z "},"e":{"ha":888,"x_min":0,"x_max":776,"o":"m 339 378 q 353 414 339 399 q 389 429 368 429 l 672 429 q 639 522 664 479 q 577 596 614 564 q 494 647 540 628 q 397 668 449 665 l 394 668 l 389 668 l 388 668 q 276 645 328 668 q 185 583 224 622 q 123 490 146 543 q 100 378 100 438 q 123 265 100 318 q 185 174 146 213 q 276 112 224 135 q 389 89 329 89 q 424 74 410 89 q 439 39 439 60 q 424 3 439 18 q 389 -11 410 -11 q 240 18 310 -11 q 114 103 169 47 q 29 228 58 158 q 0 378 0 299 q 29 528 0 457 q 114 654 58 599 q 238 739 168 710 q 386 768 308 768 l 388 768 l 389 768 l 392 768 q 539 738 469 767 q 663 654 608 708 q 747 528 718 599 q 776 378 776 457 l 776 371 q 762 343 774 354 q 735 329 750 332 q 726 328 732 328 l 389 328 q 353 342 368 328 q 339 378 339 357 z "},"f":{"ha":515,"x_min":0,"x_max":442,"o":"m 438 375 q 423 339 438 354 q 388 324 408 324 l 101 324 l 101 36 q 87 1 101 15 q 51 -14 72 -14 q 16 1 31 -14 q 1 36 1 15 l 1 361 q 0 375 0 365 q 1 388 0 383 l 1 615 l 1 617 q 32 765 3 694 q 115 889 61 835 q 242 974 171 944 q 392 1003 313 1003 q 427 988 413 1003 q 442 953 442 974 q 427 917 442 932 q 392 903 413 903 q 279 880 332 903 q 187 818 226 857 q 124 726 147 779 q 101 614 101 674 q 102 611 101 613 q 103 607 103 610 q 102 605 103 606 q 101 601 101 604 l 101 425 l 388 425 q 423 410 408 425 q 438 375 438 396 z "},"g":{"ha":892,"x_min":0,"x_max":781,"o":"m 665 -178 q 540 -262 610 -233 q 390 -292 469 -292 q 355 -277 369 -292 q 340 -242 340 -262 q 355 -206 340 -221 q 390 -192 369 -192 q 503 -169 450 -192 q 594 -107 556 -146 q 656 -15 633 -68 q 679 97 679 38 l 679 99 l 679 361 l 679 368 l 679 374 q 656 486 679 433 q 594 578 633 539 q 503 640 556 617 q 390 663 450 663 q 278 640 331 663 q 185 578 225 617 q 123 486 146 539 q 100 374 100 433 q 123 262 100 314 q 185 171 146 210 q 278 109 225 132 q 390 86 331 86 q 426 72 411 86 q 440 36 440 57 q 426 1 440 15 q 390 -14 411 -14 q 240 15 311 -14 q 114 100 169 44 q 31 224 60 154 q 0 371 1 294 l 0 374 l 0 375 l 0 376 q 31 524 1 454 q 114 649 60 594 q 240 733 169 704 q 390 763 311 763 q 540 733 469 763 q 665 649 610 704 q 750 524 721 594 q 781 376 779 454 l 781 375 l 781 97 l 781 94 q 750 -53 779 17 q 665 -178 721 -124 z "},"h":{"ha":889,"x_min":0,"x_max":778,"o":"m 728 -14 q 692 1 707 -14 q 678 36 678 15 l 678 375 q 655 487 678 435 q 593 578 632 539 q 501 641 554 618 q 389 664 449 664 q 277 641 329 664 q 186 578 225 618 q 124 487 147 539 q 101 375 101 435 q 100 364 101 368 l 100 36 q 85 1 100 15 q 50 -14 71 -14 q 15 1 29 -14 q 0 36 0 15 l 0 615 l 0 953 q 15 989 0 974 q 50 1004 29 1004 q 85 989 71 1004 q 100 953 100 974 l 100 635 q 108 643 104 639 q 115 650 111 647 q 239 735 169 706 q 386 765 308 764 l 389 765 l 390 765 l 392 765 q 540 735 469 764 q 664 650 610 706 q 749 524 719 594 q 778 375 778 454 l 778 36 q 763 1 778 15 q 728 -14 749 -14 z "},"i":{"ha":139,"x_min":0,"x_max":100,"o":"m 0 946 q 15 981 0 967 q 50 996 29 996 q 85 981 71 996 q 100 946 100 967 l 100 903 q 85 867 100 882 q 50 853 71 853 q 15 867 29 853 q 0 903 0 882 l 0 946 m 50 763 q 85 748 71 763 q 100 713 100 733 l 100 36 q 85 1 100 15 q 50 -14 71 -14 q 15 1 29 -14 q 0 36 0 15 l 0 713 q 15 748 0 733 q 50 763 29 763 z "},"j":{"ha":513,"x_min":0,"x_max":440,"o":"m 440 903 q 426 867 440 882 q 390 853 411 853 q 355 867 369 853 q 340 903 340 882 l 340 944 q 355 980 340 965 q 390 994 369 994 q 426 980 411 994 q 440 944 440 965 l 440 903 m 390 764 q 426 749 411 764 q 440 714 440 735 l 440 97 l 440 93 q 410 -54 439 15 q 326 -179 381 -124 q 200 -264 271 -235 q 50 -293 129 -293 q 15 -278 29 -293 q 0 -243 0 -264 q 15 -207 0 -222 q 50 -192 29 -192 q 163 -169 110 -192 q 255 -107 215 -146 q 317 -15 294 -68 q 340 97 340 38 l 340 99 l 340 714 q 355 749 340 735 q 390 764 369 764 z "},"k":{"ha":703,"x_min":0,"x_max":611,"o":"m 50 1003 q 85 988 71 1003 q 100 953 100 974 l 100 357 l 126 381 l 525 749 q 560 763 540 764 q 596 746 581 761 q 609 710 610 731 q 593 675 608 689 l 238 346 l 590 61 q 609 28 607 49 q 599 -10 611 7 q 558 -28 581 -28 q 528 -17 542 -28 l 163 278 l 100 219 l 100 35 q 85 -1 100 14 q 50 -15 71 -15 q 15 -1 29 -15 q 0 35 0 14 l 0 953 q 15 988 0 974 q 50 1003 29 1003 z "},"l":{"ha":515,"x_min":0,"x_max":440,"o":"m 390 86 q 426 72 411 86 q 440 36 440 57 q 426 1 440 15 q 390 -14 411 -14 q 240 15 311 -14 q 114 100 169 44 q 31 224 60 154 q 0 372 1 294 l 0 374 l 0 953 q 15 988 0 974 q 50 1003 29 1003 q 85 988 71 1003 q 100 953 100 974 l 100 388 l 100 382 l 100 375 q 123 263 100 315 q 185 171 146 210 q 278 109 225 132 q 390 86 331 86 z "},"m":{"ha":1518,"x_min":0,"x_max":1347,"o":"m 985 765 q 1124 738 1058 765 q 1242 660 1189 711 q 1320 542 1293 608 q 1347 404 1347 476 l 1347 36 q 1333 1 1347 15 q 1297 -14 1318 -14 q 1262 1 1276 -14 q 1247 36 1247 15 l 1247 404 q 1226 506 1247 458 q 1170 588 1206 553 q 1087 644 1135 624 q 985 665 1039 665 q 883 644 931 665 q 801 588 836 624 q 744 506 765 553 q 724 404 724 458 l 724 399 l 724 36 q 709 1 724 15 q 674 -14 694 -14 q 638 1 653 -14 q 624 36 624 15 l 624 404 q 603 506 624 458 q 547 588 582 553 q 463 644 511 624 q 361 665 415 665 q 260 644 307 665 q 177 588 213 624 q 121 506 142 553 q 100 404 100 458 l 100 399 l 100 36 q 85 1 100 15 q 50 -14 71 -14 q 15 1 29 -14 q 0 36 0 15 l 0 397 l 0 404 q 27 542 0 476 q 106 660 54 608 q 223 738 157 711 q 361 765 289 765 q 500 738 435 765 q 618 660 565 711 q 648 625 633 643 q 674 588 663 607 q 729 660 696 626 q 847 738 781 711 q 985 765 913 765 z "},"n":{"ha":829,"x_min":0,"x_max":722,"o":"m 672 -14 q 637 1 651 -14 q 622 36 622 15 l 622 403 q 601 504 622 457 q 545 587 581 551 q 463 643 510 622 q 361 664 415 664 q 260 644 307 664 q 177 588 213 624 q 121 506 142 553 q 100 404 100 458 l 100 399 l 100 397 l 100 36 q 85 1 100 15 q 50 -14 71 -14 q 15 1 29 -14 q 0 36 0 15 l 0 396 l 0 403 q 27 542 0 476 q 106 658 54 607 q 223 737 157 710 q 361 764 289 764 q 500 737 435 764 q 617 658 565 710 q 695 542 668 607 q 722 403 722 476 l 722 36 q 708 1 722 15 q 672 -14 693 -14 z "},"o":{"ha":892,"x_min":0,"x_max":779,"o":"m 389 476 q 424 462 410 476 q 439 426 439 447 l 439 299 q 424 263 439 278 q 389 249 410 249 q 353 263 368 249 q 339 299 339 278 l 339 426 q 353 462 339 447 q 389 476 368 476 m 779 374 l 779 371 q 749 224 778 294 q 665 100 719 154 q 539 15 610 44 q 389 -14 468 -14 q 240 15 310 -14 q 114 100 169 44 q 31 224 60 154 q 0 371 1 294 l 0 374 l 0 375 l 0 378 q 31 524 1 456 q 114 649 60 593 q 240 732 169 703 q 389 761 310 761 q 539 732 468 761 q 665 649 610 703 q 749 524 719 593 q 779 376 778 454 l 779 375 l 779 374 m 389 86 q 501 109 449 86 q 594 171 554 132 q 656 262 633 210 q 679 374 679 314 q 656 485 679 433 q 594 576 633 538 q 501 638 554 615 q 389 661 449 661 q 279 640 331 661 q 188 581 228 618 q 125 492 149 543 q 100 383 101 442 l 100 381 l 100 375 l 100 374 q 123 262 100 314 q 185 171 146 210 q 277 109 225 132 q 389 86 329 86 z "},"p":{"ha":892,"x_min":0,"x_max":779,"o":"m 779 375 l 779 374 l 779 372 q 749 225 778 294 q 665 100 719 156 q 539 17 610 46 q 389 -12 468 -12 q 353 2 368 -12 q 339 38 339 17 q 353 72 339 57 q 389 88 368 88 q 501 110 449 88 q 594 171 554 132 q 656 263 633 210 q 679 375 679 315 q 656 487 679 435 q 594 578 633 539 q 501 640 554 617 q 389 663 449 663 q 277 640 329 663 q 185 578 225 617 q 123 487 146 539 q 100 375 100 435 l 100 368 l 100 363 l 100 -240 q 85 -276 100 -261 q 50 -290 71 -290 q 15 -276 29 -290 q 0 -240 0 -261 l 0 375 l 0 378 q 31 524 1 454 q 114 649 60 594 q 240 733 169 704 q 389 763 310 763 q 539 733 468 763 q 665 649 610 704 q 749 524 719 594 q 779 378 778 454 l 779 375 z "},"q":{"ha":892,"x_min":0,"x_max":779,"o":"m 439 38 q 424 2 439 17 q 389 -12 410 -12 q 240 17 310 -12 q 114 100 169 46 q 31 225 60 156 q 0 372 1 294 l 0 374 l 0 375 l 0 378 q 31 525 1 456 q 114 649 60 594 q 240 733 169 704 q 389 763 310 763 q 539 733 468 763 q 665 649 610 704 q 749 524 719 594 q 779 378 778 454 l 779 375 l 779 -240 q 765 -276 779 -261 q 729 -290 750 -290 q 694 -276 708 -290 q 679 -240 679 -261 l 679 363 q 678 365 679 364 q 678 368 678 367 q 679 374 679 371 l 679 375 q 656 487 679 435 q 594 578 633 539 q 501 640 554 617 q 389 663 449 663 q 277 640 329 663 q 185 578 225 617 q 123 487 146 539 q 100 375 100 435 q 123 263 100 315 q 185 171 146 210 q 277 110 225 132 q 389 88 329 88 q 424 72 410 88 q 439 38 439 57 z "},"r":{"ha":483,"x_min":0,"x_max":411,"o":"m 50 -11 q 15 4 29 -11 q 0 40 0 19 l 0 400 l 0 407 q 27 544 0 479 q 106 661 54 610 q 223 740 157 713 q 361 767 289 767 q 397 752 382 767 q 411 717 411 738 q 397 681 411 696 q 361 667 382 667 q 260 647 307 667 q 177 591 213 626 q 121 509 142 556 q 100 408 100 463 l 100 403 l 100 401 l 100 40 q 85 4 100 19 q 50 -11 71 -11 z "},"s":{"ha":686,"x_min":0,"x_max":593,"o":"m 507 492 q 571 395 549 449 q 593 282 593 342 l 593 281 q 507 72 593 158 q 297 -15 419 -15 q 86 72 174 -15 q 0 281 0 158 l 0 288 q 16 322 1 307 q 50 336 31 336 q 85 321 71 336 q 100 286 100 306 l 100 281 q 115 204 100 240 q 158 142 131 168 q 221 100 185 115 q 297 85 257 85 q 374 100 338 85 q 436 142 410 115 q 478 205 463 169 q 493 281 493 240 l 493 282 q 478 358 493 322 q 436 421 463 394 q 374 463 410 447 q 297 478 338 478 l 294 478 q 171 522 222 479 q 108 617 125 560 q 111 728 93 675 q 136 757 118 747 q 174 760 154 767 q 203 735 193 753 q 206 697 213 717 q 205 643 197 669 q 235 599 213 617 q 297 578 257 581 l 299 578 q 412 556 358 578 q 507 492 465 533 z "},"t":{"ha":515,"x_min":0,"x_max":440,"o":"m 0 704 l 0 711 l 0 718 l 0 951 q 15 987 0 972 q 50 1001 29 1001 q 85 987 71 1001 q 100 951 100 972 l 100 761 l 388 761 q 422 747 407 761 q 438 711 438 732 q 422 676 438 690 q 388 661 407 661 l 100 661 l 100 386 q 101 381 101 385 q 101 376 101 378 q 100 374 100 375 q 123 262 100 314 q 185 171 146 210 q 278 109 225 132 q 390 86 331 86 q 426 72 411 86 q 440 36 440 57 q 426 1 440 15 q 390 -14 411 -14 q 240 15 311 -14 q 114 100 169 44 q 31 224 60 154 q 0 371 1 294 l 0 374 l 0 704 z "},"u":{"ha":829,"x_min":0,"x_max":722,"o":"m 361 -15 q 223 12 289 -15 q 106 90 157 39 q 27 207 54 142 q 0 346 0 272 l 0 713 q 15 748 0 733 q 50 763 29 763 q 85 748 71 763 q 100 713 100 733 l 100 346 q 120 244 100 292 q 176 160 140 196 q 259 105 211 125 q 361 85 307 85 q 463 105 415 85 q 545 160 510 125 q 601 243 581 196 q 622 344 622 290 l 622 350 l 622 351 l 622 713 q 637 748 622 733 q 672 763 651 763 q 708 748 693 763 q 722 713 722 733 l 722 351 l 722 346 q 695 207 722 272 q 617 90 668 142 q 500 12 565 39 q 361 -15 435 -15 z "},"v":{"ha":779,"x_min":-4,"x_max":732,"o":"m 407 15 q 406 13 407 14 q 405 11 406 11 q 404 10 404 11 l 403 10 q 402 8 403 8 q 401 7 401 8 l 399 4 q 396 3 397 3 l 396 1 q 394 1 394 1 q 393 0 394 0 q 390 -1 392 -1 l 390 -3 q 388 -4 389 -3 q 386 -5 386 -4 q 385 -6 386 -6 l 383 -6 l 382 -7 l 381 -7 q 378 -8 379 -7 q 374 -9 375 -8 q 371 -10 374 -10 l 368 -10 l 367 -10 l 364 -10 l 361 -10 l 360 -10 l 357 -10 q 353 -9 354 -10 q 350 -8 353 -8 q 347 -7 349 -7 l 346 -7 l 344 -6 l 343 -6 q 342 -5 342 -6 q 340 -4 342 -4 q 338 -3 339 -3 l 336 -1 q 335 0 336 -1 q 332 1 333 0 l 331 3 q 329 4 331 3 l 326 7 l 324 10 q 323 11 324 11 q 322 13 322 11 q 321 15 321 14 l 319 15 q 318 19 319 18 l 4 696 q 3 734 -4 715 q 29 763 10 753 q 67 764 49 771 q 96 738 86 757 l 364 160 l 632 738 q 660 764 640 757 q 699 763 679 771 q 725 734 718 753 q 724 696 732 715 l 410 19 q 408 17 408 18 q 407 15 408 17 z "},"w":{"ha":1079,"x_min":-4,"x_max":1003,"o":"m 969 758 q 996 730 989 749 q 993 692 1003 711 l 679 15 q 678 11 679 13 q 677 10 678 10 q 676 8 676 10 l 674 6 q 673 4 674 4 q 672 3 672 4 l 671 3 q 670 1 671 1 q 669 0 669 1 l 668 0 q 667 -3 668 -1 q 665 -3 665 -3 q 664 -4 665 -4 l 661 -7 l 660 -7 l 658 -8 l 657 -8 l 656 -10 l 654 -10 q 651 -11 653 -11 q 649 -12 650 -11 l 647 -12 q 644 -13 646 -12 q 642 -14 643 -14 l 640 -14 l 638 -14 l 635 -14 l 631 -14 l 628 -14 l 626 -14 q 624 -13 625 -14 q 621 -12 622 -12 l 619 -12 q 617 -11 619 -12 q 614 -10 615 -11 l 613 -10 l 611 -8 l 610 -8 l 608 -7 l 607 -7 q 606 -6 607 -6 q 606 -4 606 -6 l 604 -4 q 601 -3 604 -4 q 601 -1 601 -1 q 600 0 600 -1 l 599 0 q 598 1 599 1 q 597 3 597 1 l 596 3 q 594 6 596 4 q 593 8 593 7 l 592 8 q 590 11 592 10 q 590 13 590 13 q 589 15 589 14 l 499 208 l 410 15 q 408 13 408 14 q 407 11 408 13 q 406 8 407 10 q 405 7 406 7 q 404 6 404 7 l 403 6 q 402 4 403 4 q 401 3 401 4 l 399 0 l 396 -3 q 394 -3 394 -3 q 393 -4 394 -4 l 390 -7 q 389 -8 389 -7 q 388 -8 389 -8 q 386 -9 386 -8 q 385 -10 386 -10 l 383 -10 q 382 -11 383 -11 l 381 -11 q 379 -12 379 -11 q 378 -12 379 -12 q 374 -13 375 -12 q 371 -14 374 -14 l 368 -14 l 367 -14 l 364 -14 l 361 -14 l 360 -14 l 357 -14 q 353 -13 354 -14 q 350 -12 353 -12 q 347 -11 349 -12 l 346 -11 q 344 -10 346 -11 l 343 -10 q 342 -9 342 -10 q 340 -8 342 -8 q 339 -8 339 -8 q 338 -7 339 -7 l 336 -7 q 335 -6 336 -6 q 335 -4 335 -6 q 332 -3 333 -4 l 331 -3 q 330 -1 331 -1 q 329 0 329 -1 l 326 3 q 325 6 325 4 l 324 6 q 323 7 324 7 q 322 8 322 7 q 321 11 321 10 l 319 11 q 318 15 319 14 l 4 692 q 3 730 -4 711 q 29 758 10 749 q 67 760 49 767 q 96 733 86 753 l 364 156 l 454 349 l 632 733 q 660 760 640 753 q 699 758 679 767 q 725 730 718 749 q 724 692 732 711 l 554 328 l 635 156 l 903 733 q 931 760 911 753 q 969 758 950 767 z "},"y":{"ha":639,"x_min":-3,"x_max":604,"o":"m 579 753 q 601 721 597 742 q 592 683 604 700 l 117 6 q 75 -15 101 -15 q 46 -6 60 -15 q 26 26 29 6 q 35 64 22 47 l 239 356 l 8 683 q 1 721 -3 700 q 21 753 4 742 q 59 762 39 765 q 90 742 79 758 l 300 443 l 510 742 q 542 762 522 758 q 579 753 563 765 z "},"x":{"ha":667,"x_min":-3,"x_max":578,"o":"m 567 64 q 575 26 578 47 q 554 -6 572 6 q 526 -15 543 -15 q 485 6 499 -15 l 288 286 l 90 6 q 50 -15 75 -15 q 21 -6 35 -15 q 1 26 4 6 q 8 64 -3 47 l 226 374 l 8 683 q 1 721 -3 700 q 21 753 4 742 q 59 762 39 765 q 90 742 79 758 l 288 461 l 485 742 q 517 762 496 758 q 554 753 538 765 q 575 721 572 742 q 567 683 578 700 l 349 374 l 567 64 z "},"z":{"ha":667,"x_min":0,"x_max":576,"o":"m 576 710 l 575 708 l 575 707 l 575 706 l 575 704 l 575 703 l 575 700 l 574 700 l 574 699 l 574 697 l 574 696 q 572 694 574 696 l 572 693 q 571 692 572 692 l 571 690 q 569 688 569 689 l 568 686 l 568 685 q 567 683 568 685 l 146 85 l 525 85 q 561 70 546 85 q 576 35 576 56 q 561 -1 576 14 q 525 -15 546 -15 l 50 -15 l 47 -15 l 44 -15 q 42 -15 43 -15 q 40 -14 42 -14 l 39 -14 l 38 -14 q 35 -12 36 -14 l 33 -12 l 32 -12 q 31 -11 32 -12 l 29 -11 l 28 -10 l 26 -10 l 25 -8 q 24 -7 24 -8 l 22 -7 l 21 -7 l 21 -6 l 19 -6 q 18 -4 19 -4 l 18 -3 l 17 -3 l 15 -1 l 14 0 l 13 1 l 11 3 q 10 4 11 4 l 10 6 q 8 7 10 6 l 7 8 l 7 10 l 6 11 l 6 13 l 4 14 l 4 15 q 3 17 4 15 l 3 19 q 1 21 1 19 l 1 22 l 1 24 q 0 26 1 25 l 0 28 l 0 29 l 0 31 l 0 32 l 0 33 l 0 35 l 0 38 l 0 39 l 0 40 l 0 42 l 0 43 q 1 44 0 43 l 1 47 l 1 49 q 3 50 1 49 l 3 51 l 3 53 l 4 54 l 4 56 q 6 57 4 56 l 6 60 l 7 60 l 7 61 l 8 63 l 8 64 l 429 663 l 50 663 q 15 677 29 663 q 0 713 0 692 q 15 748 0 733 q 50 763 29 763 l 525 763 l 526 763 l 528 763 l 529 763 l 531 763 l 533 763 l 535 761 l 536 761 l 538 761 l 539 761 l 540 761 l 540 760 l 542 760 l 543 760 l 544 758 l 546 758 q 547 757 547 758 l 549 757 q 550 756 549 757 l 553 756 l 553 754 l 554 754 l 554 753 l 556 753 l 557 751 q 558 750 557 751 l 560 750 l 560 749 l 561 749 l 561 747 q 563 746 563 747 q 564 744 564 746 l 565 743 l 565 742 q 567 740 567 742 l 568 740 l 568 739 q 569 738 568 739 l 569 736 l 571 736 l 571 735 l 571 733 l 572 732 l 572 731 q 573 729 572 729 q 574 728 574 729 l 574 726 l 574 725 l 575 724 l 575 721 l 575 719 l 575 718 l 575 717 l 575 715 q 576 714 576 715 l 576 713 l 576 710 z "},"#":{"ha":978,"x_min":0,"x_max":867,"o":"m 153 365 l 153 692 l 51 692 q 15 707 29 692 q 0 743 0 722 q 15 780 0 765 q 51 794 29 794 l 153 794 l 153 1036 q 168 1073 153 1058 q 204 1088 183 1088 q 241 1073 226 1088 q 256 1036 256 1058 l 256 794 l 583 794 l 583 1036 q 599 1073 583 1058 q 635 1088 614 1088 q 672 1073 657 1088 q 686 1036 686 1058 l 686 794 l 815 794 q 852 780 838 794 q 867 743 867 765 q 852 707 867 722 q 815 692 838 692 l 686 692 l 686 365 l 815 365 q 852 350 838 365 q 867 314 867 335 q 852 277 867 292 q 815 263 838 263 l 686 263 l 686 38 q 672 1 686 17 q 635 -14 657 -14 q 599 1 614 -14 q 583 38 583 17 l 583 263 l 256 263 l 256 38 q 241 1 256 17 q 204 -14 226 -14 q 168 1 183 -14 q 153 38 153 17 l 153 263 l 51 263 q 15 277 29 263 q 0 314 0 292 q 15 350 0 335 q 51 365 29 365 l 153 365 m 256 365 l 583 365 l 583 692 l 256 692 l 256 365 z "},"$":{"ha":769,"x_min":0,"x_max":742,"o":"m 319 -14 q 108 92 197 3 q 28 212 56 144 q 0 354 0 279 l 0 360 q 15 397 0 382 q 51 411 31 411 q 88 396 72 411 q 103 360 103 381 l 103 353 q 124 249 103 297 q 181 164 144 200 q 267 107 218 128 q 371 86 315 86 q 475 107 426 86 q 560 165 524 128 q 618 250 597 201 q 639 354 639 299 q 618 458 639 410 q 561 543 597 507 q 476 601 525 579 q 372 622 428 622 l 368 622 q 217 676 276 626 q 158 748 179 707 q 132 834 136 789 q 141 923 128 879 q 185 1004 154 967 l 185 1006 q 247 1058 213 1038 q 319 1086 281 1078 l 319 1160 q 335 1197 319 1182 q 371 1211 350 1211 q 407 1197 392 1211 q 422 1160 422 1182 l 422 1083 q 514 1038 472 1071 q 533 1002 531 1024 q 521 964 535 981 q 486 946 507 949 q 449 958 465 943 q 403 983 428 975 q 353 988 378 990 q 304 973 328 985 q 264 940 281 961 q 240 894 247 919 q 235 844 232 869 q 249 796 238 819 q 282 756 261 772 q 372 725 314 728 l 374 725 q 515 697 449 725 q 633 617 581 669 q 714 497 686 564 q 742 354 742 429 q 714 212 742 279 q 633 92 686 144 q 422 -14 544 3 l 422 -86 q 407 -123 422 -108 q 371 -137 392 -137 q 335 -123 350 -137 q 319 -86 319 -108 l 319 -14 l 319 -14 z "},"%":{"ha":1147,"x_min":0,"x_max":1036,"o":"m 101 -7 q 90 10 92 0 q 94 31 88 21 l 838 1088 q 855 1099 844 1097 q 875 1094 865 1101 q 887 1076 885 1088 q 882 1057 889 1065 l 139 -1 q 117 -12 131 -12 q 101 -7 107 -12 m 178 744 q 108 758 140 744 q 52 797 76 772 q 14 853 28 821 q 0 922 0 885 q 14 990 0 958 q 52 1047 28 1022 q 108 1085 76 1071 q 178 1099 140 1099 q 246 1085 214 1099 q 302 1047 278 1071 q 340 990 326 1022 q 354 922 354 958 q 340 853 354 885 q 302 797 326 821 q 246 758 278 772 q 178 744 214 744 m 178 1044 q 130 1035 153 1044 q 90 1008 107 1025 q 64 969 74 992 q 54 922 54 947 q 90 835 54 871 q 178 799 126 799 q 225 808 203 799 q 264 835 247 818 q 290 874 281 851 q 300 922 300 897 q 290 969 300 947 q 264 1008 281 992 q 225 1035 247 1025 q 178 1044 203 1044 m 860 -24 q 790 -10 822 -24 q 734 28 758 4 q 696 84 710 51 q 682 153 682 117 q 696 222 682 190 q 734 278 710 254 q 790 317 758 303 q 860 331 822 331 q 928 317 896 331 q 984 278 960 303 q 1022 222 1008 254 q 1036 153 1036 190 q 1022 84 1036 117 q 984 28 1008 51 q 928 -10 960 4 q 860 -24 896 -24 m 860 276 q 772 240 808 276 q 736 153 736 204 q 772 66 736 101 q 860 31 808 31 q 947 66 911 31 q 982 153 982 101 q 947 240 982 204 q 860 276 911 276 z "},"&":{"ha":1164,"x_min":0,"x_max":1057,"o":"m 32 243 q 10 314 17 278 q 0 388 3 350 l 0 393 l 0 399 l 0 404 l 0 411 l 0 415 q 32 554 4 485 q 121 685 63 626 q 246 771 175 739 q 243 774 243 774 q 158 903 179 826 q 161 1053 138 976 q 187 1082 168 1072 q 226 1085 206 1092 q 256 1059 246 1078 q 258 1021 265 1040 q 257 930 243 975 q 308 853 271 885 q 414 818 347 821 l 415 818 q 575 785 497 818 q 706 697 650 753 q 793 565 761 639 q 826 404 826 488 l 826 399 l 826 393 l 826 386 l 825 386 l 825 382 q 801 265 824 324 q 943 233 878 269 q 1047 125 1014 194 q 1051 85 1057 106 q 1025 56 1044 65 q 986 52 1006 46 q 956 78 967 58 q 892 144 933 121 q 803 163 851 167 q 714 122 758 158 q 710 117 711 119 q 706 113 708 115 q 574 24 646 54 q 463 -6 519 3 l 457 -6 l 454 -6 q 433 -8 443 -7 q 411 -8 422 -8 q 256 22 329 -8 q 119 113 178 53 q 116 117 117 115 q 113 121 115 118 q 32 243 61 176 m 413 703 q 293 679 349 703 q 195 614 238 656 q 128 517 153 572 q 103 399 104 461 q 128 281 104 336 q 195 184 153 225 q 293 119 238 143 q 413 94 349 94 q 528 117 472 94 q 631 185 585 140 q 633 188 633 188 l 642 196 q 701 288 679 236 q 724 399 722 340 q 697 517 722 461 q 631 614 672 572 q 533 679 589 656 q 413 703 476 703 z "},"(":{"ha":356,"x_min":0,"x_max":274,"o":"m 190 -1 q 50 154 100 60 q 0 357 0 249 l 0 593 l 0 599 l 0 713 l 0 719 q 50 923 0 828 q 192 1079 100 1018 q 231 1087 210 1090 q 263 1065 251 1083 q 270 1026 274 1047 q 249 994 267 1006 q 141 876 179 947 q 103 721 103 804 l 103 714 l 103 713 l 103 426 l 103 421 l 103 357 q 141 202 103 274 q 247 83 179 131 q 269 51 265 72 q 261 13 274 31 q 219 -10 247 -10 q 190 -1 203 -10 z "},")":{"ha":354,"x_min":-3,"x_max":271,"o":"m 22 83 q 130 202 92 131 q 168 357 168 274 l 168 364 l 168 365 l 168 651 l 168 657 l 168 721 q 130 876 168 804 q 24 994 92 947 q 1 1026 6 1006 q 10 1065 -3 1047 q 42 1087 21 1083 q 81 1079 63 1090 q 221 924 171 1018 q 271 721 271 829 l 271 485 l 271 479 l 271 365 l 271 358 q 221 155 271 250 q 81 -1 171 60 q 51 -10 65 -10 q 27 -4 39 -10 q 8 13 15 1 q 1 51 -3 31 q 22 83 4 72 z "},"{":{"ha":460,"x_min":0,"x_max":351,"o":"m 19 500 q 0 542 0 517 q 19 582 0 567 l 76 626 l 76 721 q 127 924 76 829 q 268 1079 178 1018 q 307 1087 286 1090 q 339 1065 328 1083 q 347 1026 351 1047 q 325 994 343 1006 q 218 876 257 947 q 179 721 179 804 l 179 600 q 160 560 179 575 l 135 540 l 160 519 q 179 479 179 504 l 179 358 q 217 203 179 275 q 325 86 256 132 q 347 53 343 74 q 339 14 350 32 q 296 -8 321 -8 q 267 0 281 -8 q 126 156 176 63 q 76 358 76 250 l 76 456 l 19 500 l 19 500 z "},"}":{"ha":460,"x_min":-3,"x_max":349,"o":"m 22 994 q 1 1026 4 1006 q 8 1065 -3 1047 q 42 1087 21 1083 q 81 1079 63 1090 q 221 924 171 1018 q 271 721 271 829 l 271 626 l 328 582 q 349 542 349 565 q 329 500 349 519 l 271 456 l 271 358 q 221 156 271 250 q 81 0 171 63 q 53 -8 68 -8 q 10 14 25 -8 q 1 53 -3 32 q 24 86 6 74 q 130 203 92 132 q 168 358 168 275 l 168 479 q 188 519 168 504 l 214 540 l 188 560 q 168 600 168 575 l 168 721 q 130 876 168 804 q 22 994 92 947 z "},"[":{"ha":440,"x_min":0,"x_max":329,"o":"m 51 -15 q 15 0 31 -15 q 0 36 0 15 l 1 1036 q 16 1073 1 1058 q 53 1088 31 1088 l 278 1088 q 315 1073 300 1088 q 329 1036 329 1058 q 315 1000 329 1015 q 278 985 300 985 l 104 985 l 103 88 l 278 88 q 315 73 300 88 q 329 36 329 58 q 315 0 329 15 q 278 -15 300 -15 l 51 -15 l 51 -15 z "},"]":{"ha":440,"x_min":0,"x_max":329,"o":"m 226 88 l 226 985 l 51 985 q 15 1000 29 985 q 0 1036 0 1015 q 15 1073 0 1058 q 51 1088 29 1088 l 278 1088 q 315 1072 300 1088 q 329 1036 329 1058 l 329 36 q 314 0 329 15 q 278 -15 299 -15 l 51 -15 q 15 0 29 -15 q 0 36 0 15 q 15 73 0 58 q 51 88 29 88 l 226 88 z "},"/":{"ha":804,"x_min":-4,"x_max":724,"o":"m 24 -10 q 1 22 6 1 q 7 61 -4 43 l 625 1064 q 657 1087 636 1082 q 696 1081 678 1092 q 719 1049 715 1069 q 713 1010 724 1028 l 94 7 q 51 -17 79 -17 q 24 -10 36 -17 z "},"\\":{"ha":832,"x_min":-4,"x_max":724,"o":"m 7 1010 q 1 1049 -4 1028 q 24 1081 6 1069 q 63 1087 43 1092 q 94 1064 83 1082 l 713 61 q 719 22 724 43 q 696 -10 715 1 q 669 -17 685 -17 q 644 -10 657 -17 q 625 7 632 -4 l 7 1010 z "},"?":{"ha":854,"x_min":-7,"x_max":750,"o":"m 11 628 q 10 631 11 629 q 10 633 10 632 q 5 779 -7 707 q 57 914 17 851 q 156 1019 97 976 q 288 1078 215 1061 q 433 1083 361 1094 q 568 1032 506 1071 q 673 933 631 992 q 732 801 715 874 q 733 800 733 801 q 738 656 750 728 q 686 521 726 583 q 588 415 646 457 q 457 356 529 372 l 456 356 q 375 306 403 342 q 353 268 357 283 q 349 228 349 253 q 333 191 349 206 q 297 176 318 176 q 260 192 275 176 q 246 228 246 207 q 255 299 246 268 q 293 368 264 331 q 428 454 342 431 q 432 456 429 456 q 528 499 485 468 q 599 575 571 529 q 636 672 628 619 q 633 778 644 725 q 589 874 621 832 q 513 944 557 917 q 417 981 469 971 q 311 978 365 990 q 214 934 257 965 q 144 859 171 903 q 107 764 117 815 q 110 658 97 713 q 111 651 110 654 q 105 613 117 631 q 72 590 93 594 q 61 589 68 589 q 29 599 43 589 q 11 628 15 610 m 296 154 q 332 139 317 154 q 347 103 347 124 l 347 35 q 332 -1 347 14 q 296 -17 317 -17 q 260 -1 275 -17 q 244 35 244 14 l 244 103 q 260 139 244 124 q 296 154 275 154 z "},"":{"ha":854,"x_min":-7,"x_max":750,"o":"m 10 271 q 5 416 -7 344 q 57 551 17 488 q 155 656 96 614 q 285 715 214 699 l 286 715 q 368 765 342 731 q 394 863 401 808 q 404 900 392 883 q 439 919 417 917 q 476 910 460 922 q 496 876 493 897 q 450 703 508 781 q 314 617 401 640 q 310 615 311 617 q 215 573 257 604 q 143 497 172 542 q 106 399 115 451 q 110 294 97 347 q 153 197 122 240 q 228 127 185 154 q 325 90 272 100 q 432 93 378 81 q 528 137 486 106 q 598 212 571 168 q 635 308 625 256 q 633 414 646 360 q 632 419 632 415 q 638 458 626 440 q 669 482 650 476 q 708 475 690 486 q 732 443 726 464 q 733 438 732 440 q 738 292 750 364 q 686 157 726 221 q 587 52 646 94 q 454 -7 528 10 q 371 -17 415 -17 q 174 40 264 -17 q 69 138 111 79 q 10 271 26 197 m 446 939 q 410 954 425 939 q 394 990 394 969 l 394 1036 q 410 1073 394 1058 q 446 1088 425 1088 q 483 1073 468 1088 q 497 1036 497 1058 l 497 990 q 483 954 497 969 q 446 939 468 939 z "},"!":{"ha":172,"x_min":0,"x_max":103,"o":"m 51 -8 q 15 7 29 -8 q 0 43 0 22 l 0 111 q 15 148 0 133 q 51 163 29 163 q 88 148 72 163 q 103 111 103 133 l 103 43 q 88 7 103 22 q 51 -8 72 -8 m 51 194 q 15 209 29 194 q 0 246 0 224 l 0 1036 q 15 1073 0 1058 q 51 1088 29 1088 q 88 1073 72 1088 q 103 1036 103 1058 l 103 246 q 88 209 103 224 q 51 194 72 194 z "},",":{"ha":186,"x_min":0,"x_max":103,"o":"m 51 -179 q 15 -164 29 -179 q 0 -128 0 -149 l 0 81 q 15 117 0 101 q 51 132 29 132 q 88 117 72 132 q 103 81 103 101 l 103 -128 q 88 -164 103 -149 q 51 -179 72 -179 z "},".":{"ha":214,"x_min":0,"x_max":103,"o":"m 51 -14 q 15 1 29 -14 q 0 38 0 15 l 0 82 q 15 119 0 104 q 51 133 29 133 q 88 119 72 133 q 103 82 103 104 l 103 38 q 88 1 103 15 q 51 -14 72 -14 z "},":":{"ha":214,"x_min":0,"x_max":103,"o":"m 51 -179 q 15 -164 29 -179 q 0 -128 0 -149 l 0 81 q 15 117 0 101 q 51 132 29 132 q 88 117 72 132 q 103 81 103 101 l 103 -128 q 88 -164 103 -149 q 51 -179 72 -179 m 51 488 q 15 503 29 488 q 0 539 0 518 l 0 585 q 15 621 0 606 q 51 636 29 636 q 88 621 72 636 q 103 585 103 606 l 103 539 q 88 503 103 518 q 51 488 72 488 z "},";":{"ha":214,"x_min":0,"x_max":103,"o":"m 51 -14 q 15 1 29 -14 q 0 38 0 15 l 0 82 q 15 119 0 104 q 51 133 29 133 q 88 119 72 133 q 103 82 103 104 l 103 38 q 88 1 103 15 q 51 -14 72 -14 m 51 488 q 15 503 29 488 q 0 539 0 518 l 0 585 q 15 621 0 606 q 51 636 29 636 q 88 621 72 636 q 103 585 103 606 l 103 539 q 88 503 103 518 q 51 488 72 488 z "},"+":{"ha":681,"x_min":0,"x_max":611,"o":"m 51 490 q 15 505 29 490 q 0 542 0 519 q 15 578 0 563 q 51 593 29 593 l 254 593 l 254 796 q 269 832 254 817 q 306 847 283 847 q 342 832 326 847 q 357 796 357 817 l 357 593 l 560 593 q 596 578 581 593 q 611 542 611 563 q 596 505 611 519 q 560 490 581 490 l 357 490 l 357 288 q 342 251 357 267 q 306 236 326 236 q 269 251 283 236 q 254 288 254 267 l 254 490 l 51 490 l 51 490 z "},"-":{"ha":694,"x_min":0,"x_max":611,"o":"m 51 490 q 15 505 29 490 q 0 542 0 519 q 15 578 0 563 q 51 593 29 593 l 560 593 q 596 578 581 593 q 611 542 611 563 q 596 505 611 519 q 560 490 581 490 l 51 490 l 51 490 z "},"=":{"ha":722,"x_min":0,"x_max":611,"o":"m 51 631 q 15 646 29 631 q 0 682 0 661 q 15 719 0 704 q 51 733 29 733 l 560 733 q 596 719 581 733 q 611 682 611 704 q 596 646 611 661 q 560 631 581 631 l 51 631 m 51 350 q 15 365 29 350 q 0 401 0 379 q 15 437 0 422 q 51 451 29 451 l 560 451 q 596 437 581 451 q 611 401 611 422 q 596 365 611 379 q 560 350 581 350 l 51 350 z "},"_":{"ha":722,"x_min":0,"x_max":611,"o":"m 560 89 q 596 74 581 89 q 611 38 611 58 q 596 1 611 17 q 560 -14 581 -14 l 51 -14 q 15 1 29 -14 q 0 38 0 17 q 15 74 0 58 q 51 89 29 89 l 560 89 l 560 89 z "},"@":{"ha":1229,"x_min":0,"x_max":1118,"o":"m 611 453 q 596 417 611 432 q 560 401 581 401 q 523 417 538 401 q 508 453 508 432 l 508 585 q 523 622 508 607 q 560 636 538 636 q 596 622 581 636 q 611 585 611 607 l 611 453 m 1067 583 q 1103 569 1089 583 q 1118 532 1118 554 q 1108 421 1118 475 q 1075 315 1097 367 q 954 138 1031 214 q 776 18 876 60 q 671 -15 725 -4 q 560 -25 617 -25 q 342 18 444 -25 q 164 138 242 60 q 44 315 86 215 q 0 529 0 419 l 0 531 l 0 532 l 0 535 q 44 747 0 643 q 164 925 86 847 q 247 993 203 964 q 342 1044 292 1022 q 560 1088 444 1088 l 910 1088 q 947 1072 932 1088 q 961 1036 961 1057 l 961 532 l 961 519 l 961 513 q 927 369 957 438 q 843 249 897 301 q 713 160 786 190 q 560 131 640 131 q 406 160 478 131 q 275 249 333 190 q 188 377 218 306 q 157 528 158 449 l 157 531 l 157 532 l 157 539 q 173 575 158 560 q 208 590 188 590 q 245 575 231 590 q 260 539 260 560 l 260 532 l 260 531 q 283 415 260 469 q 348 321 307 361 q 443 257 389 281 q 560 233 497 233 q 675 257 621 233 q 770 321 729 281 q 835 416 811 361 q 858 532 858 471 l 858 985 l 560 985 q 385 950 467 985 q 242 856 303 915 q 143 717 181 797 q 103 546 106 638 l 103 542 l 103 533 l 103 532 l 103 531 q 139 353 103 436 q 237 210 175 271 q 382 113 299 149 q 560 76 465 76 q 737 113 654 76 q 881 210 819 149 q 979 355 943 272 q 1015 532 1015 438 q 1031 569 1015 554 q 1067 583 1046 583 z "},"'":{"ha":214,"x_min":0,"x_max":103,"o":"m 51 1088 q 88 1073 72 1088 q 103 1036 103 1058 l 103 828 q 88 792 103 807 q 51 776 72 776 q 15 792 29 776 q 0 828 0 807 l 0 1036 q 15 1073 0 1058 q 51 1088 29 1088 z "},"\"":{"ha":325,"x_min":0,"x_max":256,"o":"m 51 1088 q 88 1073 72 1088 q 103 1036 103 1058 l 103 828 q 88 792 103 807 q 51 776 72 776 q 15 792 29 776 q 0 828 0 807 l 0 1036 q 15 1073 0 1058 q 51 1088 29 1088 m 204 1088 q 240 1073 225 1088 q 256 1036 256 1058 l 256 828 q 240 792 256 807 q 204 776 225 776 q 167 792 182 776 q 153 828 153 807 l 153 1036 q 167 1073 153 1058 q 204 1088 182 1088 z "},"<":{"ha":474,"x_min":-1,"x_max":364,"o":"m 349 811 q 362 775 364 796 q 344 739 360 754 l 126 544 l 344 351 q 362 315 360 336 q 349 278 364 294 q 310 261 333 261 q 276 274 290 261 l 15 507 l 14 508 l 13 510 l 11 511 l 10 513 q 9 514 10 514 q 8 515 8 514 l 7 517 q 6 519 6 518 l 4 521 l 4 522 l 3 524 l 3 525 q 1 526 3 526 l 1 528 l 1 529 l 1 531 q 0 532 0 531 l 0 535 q -1 536 0 536 l -1 538 l -1 539 l -1 540 l -1 542 l -1 543 l -1 544 l -1 546 l -1 547 l -1 549 l -1 550 l -1 551 l -1 553 l 0 554 l 0 556 l 0 557 l 0 558 q 1 560 0 558 l 1 563 q 3 564 1 564 l 3 565 l 3 567 q 4 568 4 567 q 6 569 4 569 l 6 571 q 7 572 6 571 l 7 574 q 8 575 7 574 l 10 576 l 10 578 q 11 579 10 578 q 13 581 13 579 l 14 581 l 14 582 q 15 583 15 582 l 276 815 q 313 829 292 831 q 349 811 333 828 z "},">":{"ha":474,"x_min":-1,"x_max":363,"o":"m 363 544 l 363 543 l 363 542 l 363 540 l 363 539 l 363 538 l 363 536 l 363 535 l 361 535 l 361 532 l 361 531 l 361 529 q 360 528 360 529 l 360 526 l 360 525 l 358 525 l 358 524 q 357 522 358 522 l 357 521 l 357 519 l 356 519 l 356 517 l 354 517 q 353 515 354 517 q 351 513 353 514 l 350 511 l 349 510 q 347 508 349 508 l 347 507 l 346 507 l 85 274 q 51 261 69 261 q 13 278 29 261 q 0 315 -1 294 q 17 351 1 336 l 235 544 l 17 739 q 0 775 1 754 q 13 811 -1 796 q 49 829 28 828 q 85 815 69 831 l 346 583 l 347 582 l 347 581 l 349 581 l 350 579 q 351 578 350 578 l 351 576 q 353 575 353 576 l 354 574 q 356 572 354 572 l 356 571 l 357 569 l 357 568 l 358 567 l 358 565 q 360 564 358 565 l 360 563 q 361 560 360 561 l 361 558 l 361 557 l 361 556 q 363 554 361 556 l 363 553 l 363 551 l 363 550 l 363 549 l 363 547 l 363 546 l 363 544 z "},"^":{"ha":679,"x_min":-1,"x_max":569,"o":"m 554 811 q 567 774 569 794 q 550 738 565 753 q 517 725 535 725 q 478 742 492 725 l 283 960 l 89 742 q 51 725 74 725 q 17 738 31 725 q 0 774 1 753 q 13 811 -1 794 l 246 1071 q 247 1072 246 1071 q 249 1074 247 1074 q 250 1075 249 1074 l 251 1076 l 253 1078 l 254 1078 q 256 1079 254 1079 l 256 1081 l 258 1081 l 258 1082 l 260 1082 l 261 1082 q 263 1083 261 1083 l 264 1083 l 264 1085 l 265 1085 l 267 1085 q 268 1086 267 1085 l 269 1086 l 271 1086 l 274 1086 l 274 1088 l 275 1088 l 276 1088 l 278 1088 l 279 1088 l 281 1088 l 282 1088 l 283 1088 l 285 1088 l 286 1088 l 288 1088 l 289 1088 l 290 1088 l 292 1088 l 293 1088 q 294 1086 294 1088 l 296 1086 l 297 1086 l 299 1086 q 301 1085 300 1085 l 303 1085 q 304 1083 303 1083 l 306 1083 l 307 1082 l 308 1082 l 310 1081 l 311 1081 l 311 1079 q 314 1078 313 1079 q 315 1076 314 1078 q 317 1076 317 1076 q 318 1075 317 1075 l 319 1074 l 319 1072 l 321 1072 q 322 1071 321 1072 l 554 811 z "},"`":{"ha":361,"x_min":0,"x_max":250,"o":"m 235 547 q 199 532 219 532 q 163 547 178 532 l 15 694 q 0 731 0 710 q 15 767 0 751 q 51 782 31 782 q 88 767 72 782 l 235 621 q 250 584 250 606 q 235 547 250 563 z "},"*":{"ha":394,"x_min":0,"x_max":311,"o":"m 274 982 q 301 963 290 976 q 311 932 311 950 q 301 902 311 915 q 274 883 290 889 q 280 851 282 868 q 265 822 278 835 q 229 807 250 807 q 204 814 218 807 q 187 788 200 799 q 156 776 174 776 q 124 788 138 776 q 106 814 111 799 q 82 807 94 807 q 46 822 61 807 q 31 851 33 835 q 36 883 29 868 q 10 902 21 889 q 0 932 0 915 q 10 963 0 950 q 36 982 21 976 q 31 1014 29 997 q 46 1043 33 1031 q 74 1056 57 1054 q 106 1051 90 1058 q 124 1077 111 1067 q 156 1088 138 1088 q 187 1077 174 1088 q 204 1051 200 1067 q 236 1056 219 1058 q 265 1043 253 1054 q 280 1014 278 1031 q 274 982 282 997 z "},"|":{"ha":214,"x_min":0,"x_max":103,"o":"m 51 1089 q 88 1074 72 1089 q 103 1038 103 1060 l 103 6 q 88 -31 103 -15 q 51 -46 72 -46 q 15 -31 29 -46 q 0 6 0 -15 l 0 1038 q 15 1074 0 1060 q 51 1089 29 1089 z "},"":{"ha":894,"x_min":1,"x_max":783,"o":"m 679 699 q 657 810 679 758 q 596 901 635 863 q 504 963 557 940 q 392 985 451 985 q 280 963 332 985 q 189 901 228 940 q 127 810 150 863 q 104 699 104 758 l 104 693 l 104 692 l 104 38 q 90 1 104 17 q 53 -14 75 -14 q 17 1 32 -14 q 1 38 1 17 l 1 692 l 1 699 q 31 848 1 778 q 115 975 60 918 q 242 1060 171 1031 q 392 1089 313 1089 q 542 1060 471 1089 q 668 975 613 1031 q 754 848 725 918 q 783 699 783 778 l 783 38 q 768 1 783 17 q 732 -14 753 -14 q 694 1 710 -14 q 679 38 679 17 l 679 699 m 392 -14 q 356 1 371 -14 q 340 38 340 17 l 340 368 q 356 405 340 390 q 392 419 371 419 q 429 405 414 419 q 444 368 444 390 l 444 38 q 429 1 444 17 q 392 -14 414 -14 m 443 1110 q 401 1131 415 1110 l 299 1276 q 290 1315 286 1294 q 311 1349 293 1336 q 350 1358 329 1361 q 383 1336 371 1354 l 485 1190 q 494 1151 497 1172 q 472 1118 490 1131 q 443 1110 460 1110 z "},"":{"ha":896,"x_min":3,"x_max":785,"o":"m 117 975 q 244 1060 174 1031 q 393 1089 314 1089 q 543 1060 472 1089 q 671 975 614 1031 q 756 848 726 918 q 785 699 785 778 l 785 38 q 769 1 785 17 q 733 -14 754 -14 q 697 1 711 -14 q 682 38 682 17 l 682 699 q 659 810 682 758 q 597 901 636 863 q 506 963 558 940 q 393 985 453 985 q 281 963 333 985 q 190 901 229 940 q 128 810 151 863 q 106 699 106 758 q 106 697 106 697 q 107 693 107 696 l 107 692 l 107 38 q 92 1 107 17 q 54 -14 76 -14 q 18 1 33 -14 q 3 38 3 17 l 3 692 l 3 699 q 32 848 3 778 q 117 975 61 918 m 446 38 q 431 1 446 17 q 393 -14 415 -14 q 357 1 372 -14 q 342 38 342 17 l 342 368 q 357 405 342 390 q 393 419 372 419 q 431 405 415 419 q 446 368 446 390 l 446 38 m 343 1110 q 314 1118 328 1110 q 292 1151 296 1131 q 301 1190 289 1172 l 403 1336 q 436 1358 415 1354 q 475 1349 457 1361 q 497 1315 493 1336 q 488 1276 500 1294 l 386 1131 q 343 1110 371 1110 z "},"":{"ha":893,"x_min":0,"x_max":782,"o":"m 0 699 q 29 848 0 778 q 114 975 58 918 q 242 1060 171 1031 q 392 1089 313 1089 q 541 1060 471 1089 q 668 975 611 1031 q 753 848 724 918 q 782 699 782 778 l 782 38 q 767 1 782 17 q 731 -14 751 -14 q 694 1 708 -14 q 679 38 679 17 l 679 699 q 656 810 679 758 q 594 901 633 863 q 503 963 556 940 q 392 985 451 985 q 279 963 332 985 q 188 901 226 940 q 126 810 149 863 q 103 699 103 758 q 103 697 103 697 q 104 693 104 696 l 104 692 l 104 38 q 89 1 104 17 q 51 -14 74 -14 q 15 1 31 -14 q 0 38 0 17 l 0 692 l 0 699 m 339 368 q 354 405 339 390 q 390 419 369 419 q 428 405 413 419 q 443 368 443 390 l 443 38 q 428 1 443 17 q 390 -14 413 -14 q 354 1 369 -14 q 339 38 339 17 l 339 368 m 536 1179 q 535 1176 536 1178 q 496 1140 517 1156 q 452 1115 476 1126 q 397 1104 428 1104 l 394 1104 l 390 1104 q 335 1115 360 1104 q 292 1140 310 1126 q 253 1176 269 1156 q 252 1178 253 1178 q 251 1179 251 1178 q 244 1218 240 1197 q 268 1250 249 1239 q 307 1257 286 1261 q 339 1233 328 1253 q 342 1229 339 1231 q 351 1222 342 1228 q 394 1208 369 1208 q 438 1222 417 1208 q 442 1226 440 1225 q 446 1229 444 1226 q 449 1233 447 1231 q 481 1257 460 1253 q 519 1250 501 1261 q 543 1218 539 1239 q 536 1179 547 1197 z "},"":{"ha":893,"x_min":0,"x_max":782,"o":"m 0 699 q 29 848 0 778 q 114 975 58 918 q 242 1060 171 1031 q 392 1089 313 1089 q 541 1060 471 1089 q 668 975 611 1031 q 753 848 724 918 q 782 699 782 778 l 782 38 q 767 1 782 17 q 731 -14 751 -14 q 694 1 708 -14 q 679 38 679 17 l 679 699 q 656 810 679 758 q 594 901 633 863 q 503 963 556 940 q 392 985 451 985 q 279 963 332 985 q 188 901 226 940 q 126 810 149 863 q 103 699 103 758 q 103 697 103 697 q 104 693 104 696 l 104 692 l 104 38 q 89 1 104 17 q 51 -14 74 -14 q 15 1 31 -14 q 0 38 0 17 l 0 692 l 0 699 m 443 38 q 428 1 443 17 q 390 -14 413 -14 q 354 1 369 -14 q 339 38 339 17 l 339 368 q 354 405 339 390 q 390 419 369 419 q 428 405 413 419 q 443 368 443 390 l 443 38 m 431 1340 q 432 1338 432 1339 q 433 1335 432 1336 l 535 1190 q 544 1151 547 1172 q 522 1118 540 1131 q 493 1110 510 1110 q 450 1131 467 1110 l 390 1215 l 332 1131 q 289 1110 315 1110 q 260 1118 272 1110 q 238 1151 242 1131 q 247 1190 235 1172 l 349 1335 q 350 1338 350 1336 q 351 1340 350 1339 q 353 1341 353 1340 q 354 1342 353 1342 l 354 1343 l 356 1343 q 357 1344 356 1344 q 371 1353 364 1351 q 372 1354 371 1354 q 385 1357 381 1357 l 386 1357 l 388 1357 l 389 1357 q 390 1358 389 1357 l 392 1358 q 393 1357 393 1358 l 394 1357 q 411 1353 404 1357 l 414 1353 q 419 1349 417 1350 q 425 1344 422 1347 q 426 1343 425 1344 l 428 1343 l 428 1342 q 429 1341 429 1342 q 431 1340 429 1340 z "},"":{"ha":893,"x_min":0,"x_max":782,"o":"m 0 699 q 29 848 0 778 q 114 975 58 918 q 242 1060 171 1031 q 392 1089 313 1089 q 541 1060 471 1089 q 668 975 611 1031 q 753 848 724 918 q 782 699 782 778 l 782 38 q 767 1 782 17 q 731 -14 751 -14 q 694 1 708 -14 q 679 38 679 17 l 679 699 q 656 810 679 758 q 594 901 633 863 q 503 963 556 940 q 392 985 451 985 q 279 963 332 985 q 188 901 226 940 q 126 810 149 863 q 103 699 103 758 q 103 697 103 697 q 104 693 104 696 l 104 692 l 104 38 q 89 1 104 17 q 51 -14 74 -14 q 15 1 31 -14 q 0 38 0 17 l 0 692 l 0 699 m 390 419 q 428 405 413 419 q 443 368 443 390 l 443 38 q 428 1 443 17 q 390 -14 413 -14 q 354 1 369 -14 q 339 38 339 17 l 339 368 q 354 405 339 390 q 390 419 369 419 m 206 1110 q 169 1124 183 1110 q 154 1161 154 1139 q 169 1197 154 1182 q 206 1213 183 1213 l 264 1213 q 301 1197 286 1213 q 317 1161 317 1182 q 301 1124 317 1139 q 264 1110 286 1110 l 206 1110 m 515 1110 q 478 1124 493 1110 q 463 1161 463 1139 q 478 1197 463 1182 q 515 1213 493 1213 l 574 1213 q 610 1197 596 1213 q 625 1161 625 1182 q 610 1124 625 1139 q 574 1110 596 1110 l 515 1110 z "},"":{"ha":893,"x_min":0,"x_max":782,"o":"m 0 699 q 29 848 0 778 q 114 975 58 918 q 242 1060 171 1031 q 392 1089 313 1089 q 541 1060 471 1089 q 668 975 611 1031 q 753 848 724 918 q 782 699 782 778 l 782 38 q 767 1 782 17 q 731 -14 751 -14 q 694 1 708 -14 q 679 38 679 17 l 679 699 q 656 810 679 758 q 594 901 633 863 q 503 963 556 940 q 392 985 451 985 q 279 963 332 985 q 188 901 226 940 q 126 810 149 863 q 103 699 103 758 q 103 697 103 697 q 104 693 104 696 l 104 692 l 104 38 q 89 1 104 17 q 51 -14 74 -14 q 15 1 31 -14 q 0 38 0 17 l 0 692 l 0 699 m 390 -14 q 354 1 369 -14 q 339 38 339 17 l 339 368 q 354 405 339 390 q 390 419 369 419 q 428 405 413 419 q 443 368 443 390 l 443 38 q 428 1 443 17 q 390 -14 413 -14 m 524 1251 q 513 1200 524 1224 q 485 1158 503 1176 q 442 1130 467 1140 q 392 1119 418 1119 q 340 1130 364 1119 q 297 1158 315 1140 q 269 1200 279 1176 q 258 1251 258 1224 q 269 1302 258 1278 q 297 1344 279 1326 q 340 1373 315 1363 q 392 1383 364 1383 q 442 1373 418 1383 q 485 1344 467 1363 q 513 1302 503 1326 q 524 1251 524 1278 m 363 1251 q 371 1231 363 1240 q 392 1222 379 1222 q 411 1231 403 1222 q 419 1251 419 1240 q 411 1272 419 1263 q 392 1281 403 1281 q 371 1272 379 1281 q 363 1251 363 1263 z "},"":{"ha":893,"x_min":0,"x_max":782,"o":"m 0 560 l 0 693 l 0 700 q 29 850 0 779 q 114 976 58 921 q 241 1061 171 1032 q 390 1090 311 1090 q 540 1061 469 1090 q 668 976 611 1032 q 753 850 724 921 q 782 700 782 779 q 767 664 782 679 q 731 649 751 649 q 694 664 708 649 q 679 700 679 679 q 656 812 679 760 q 594 903 633 864 q 503 965 556 942 q 390 988 450 988 q 278 965 331 988 q 188 903 226 942 q 126 812 149 864 q 103 701 103 760 q 103 699 103 700 q 104 694 104 697 l 104 560 l 104 368 l 104 367 q 103 364 104 365 q 103 361 103 363 q 126 249 103 301 q 188 158 149 197 q 278 97 226 119 q 390 75 331 75 q 503 98 450 75 q 594 160 556 121 q 656 251 633 199 q 679 361 679 303 q 694 399 679 383 q 731 414 708 414 q 767 399 751 414 q 782 361 782 383 q 753 212 782 282 q 668 86 724 142 q 436 -26 571 -11 l 436 -162 q 421 -200 436 -185 q 385 -215 406 -215 q 347 -200 363 -215 q 332 -162 332 -185 l 332 -25 q 114 86 206 -6 q 29 212 58 142 q 0 361 0 282 l 0 368 l 0 560 z "},"":{"ha":756,"x_min":0,"x_max":644,"o":"m 390 985 q 278 963 331 985 q 188 901 226 940 q 126 810 149 863 q 103 699 103 758 l 103 589 l 382 589 q 419 574 404 589 q 433 538 433 558 q 419 501 433 515 q 382 486 404 486 l 104 486 l 104 376 q 127 265 104 317 q 189 174 150 213 q 280 113 228 135 q 392 90 332 90 l 593 90 q 629 75 614 90 q 644 38 644 60 q 629 1 644 17 q 593 -14 614 -14 l 392 -14 q 242 15 313 -14 q 115 100 171 44 q 30 226 60 156 q 0 376 0 297 l 0 531 l 0 533 l 0 538 l 0 544 l 0 699 q 29 848 0 778 q 114 974 58 918 q 241 1059 171 1029 q 390 1089 311 1089 l 592 1089 q 629 1074 614 1089 q 644 1036 644 1058 q 629 1000 644 1015 q 592 985 614 985 l 390 985 m 242 1349 q 281 1356 260 1360 q 314 1336 301 1353 l 415 1190 q 424 1151 428 1172 q 403 1118 421 1131 q 374 1108 388 1108 q 331 1131 349 1108 l 229 1276 q 220 1315 217 1294 q 242 1349 224 1336 z "},"":{"ha":756,"x_min":0,"x_max":644,"o":"m 0 699 q 29 848 0 778 q 114 974 58 918 q 241 1059 171 1029 q 390 1089 311 1089 l 592 1089 q 629 1074 614 1089 q 644 1036 644 1058 q 629 1000 644 1015 q 592 985 614 985 l 390 985 q 278 963 331 985 q 188 901 226 940 q 126 810 149 863 q 103 699 103 758 l 103 589 l 382 589 q 419 574 404 589 q 433 538 433 558 q 419 501 433 515 q 382 486 404 486 l 104 486 l 104 376 q 127 265 104 317 q 189 174 150 213 q 280 113 228 135 q 392 90 332 90 l 593 90 q 629 75 614 90 q 644 38 644 60 q 629 1 644 17 q 593 -14 614 -14 l 392 -14 q 242 15 313 -14 q 115 100 171 44 q 30 226 60 156 q 0 376 0 297 l 0 531 l 0 533 l 0 538 l 0 544 l 0 699 m 332 1108 q 301 1118 318 1108 q 280 1151 283 1131 q 289 1190 276 1172 l 390 1336 q 424 1356 403 1353 q 463 1349 444 1360 q 484 1315 481 1336 q 475 1276 488 1294 l 374 1131 q 332 1108 358 1108 z "},"":{"ha":756,"x_min":0,"x_max":644,"o":"m 0 699 q 29 848 0 778 q 114 974 58 918 q 241 1059 171 1029 q 390 1089 311 1089 l 592 1089 q 629 1074 614 1089 q 644 1036 644 1058 q 629 1000 644 1015 q 592 985 614 985 l 390 985 q 278 963 331 985 q 188 901 226 940 q 126 810 149 863 q 103 699 103 758 l 103 589 l 382 589 q 419 574 404 589 q 433 538 433 558 q 419 501 433 515 q 382 486 404 486 l 104 486 l 104 376 q 127 265 104 317 q 189 174 150 213 q 280 113 228 135 q 392 90 332 90 l 593 90 q 629 75 614 90 q 644 38 644 60 q 629 1 644 17 q 593 -14 614 -14 l 392 -14 q 242 15 313 -14 q 115 100 171 44 q 30 226 60 156 q 0 376 0 297 l 0 531 l 0 533 l 0 538 l 0 544 l 0 699 m 281 1108 q 250 1118 267 1108 q 230 1151 233 1131 q 238 1190 226 1172 l 339 1335 q 343 1340 342 1338 q 344 1342 343 1340 l 346 1342 l 346 1343 q 347 1344 347 1343 q 349 1344 347 1344 q 361 1353 354 1350 q 363 1353 363 1353 q 364 1354 363 1354 q 375 1357 372 1357 l 376 1357 l 378 1357 l 381 1357 l 382 1357 l 383 1357 l 385 1357 l 386 1357 q 403 1353 394 1357 l 404 1353 l 406 1353 q 411 1349 408 1350 q 417 1344 414 1347 l 418 1343 l 419 1342 l 421 1340 q 425 1335 422 1338 l 526 1190 q 535 1151 539 1172 q 514 1118 532 1131 q 483 1108 497 1108 q 442 1131 457 1108 l 382 1215 l 322 1131 q 281 1108 307 1108 z "},"":{"ha":756,"x_min":0,"x_max":644,"o":"m 592 1089 q 629 1074 614 1089 q 644 1036 644 1058 q 629 1000 644 1015 q 592 985 614 985 l 390 985 q 278 963 331 985 q 188 901 226 940 q 126 810 149 863 q 103 699 103 758 l 103 589 l 382 589 q 419 574 404 589 q 433 538 433 558 q 419 501 433 515 q 382 486 404 486 l 104 486 l 104 376 q 127 265 104 317 q 189 174 150 213 q 280 113 228 135 q 392 90 332 90 l 593 90 q 629 75 614 90 q 644 38 644 60 q 629 1 644 17 q 593 -14 614 -14 l 392 -14 q 242 15 313 -14 q 115 100 171 44 q 30 226 60 156 q 0 376 0 297 l 0 531 l 0 533 l 0 538 l 0 544 l 0 699 q 29 848 0 778 q 114 974 58 918 q 241 1059 171 1029 q 390 1089 311 1089 l 592 1089 m 206 1108 q 169 1124 185 1108 q 154 1161 154 1139 q 169 1197 154 1182 q 206 1213 185 1213 l 265 1213 q 302 1197 288 1213 q 317 1161 317 1182 q 302 1124 317 1139 q 265 1108 288 1108 l 206 1108 m 464 1161 q 479 1197 464 1182 q 515 1213 494 1213 l 575 1213 q 611 1197 596 1213 q 626 1161 626 1182 q 611 1124 626 1139 q 575 1108 596 1108 l 515 1108 q 479 1124 494 1108 q 464 1161 464 1139 z "},"":{"ha":317,"x_min":-3,"x_max":208,"o":"m 103 1089 q 139 1074 124 1089 q 154 1036 154 1058 l 154 38 q 139 1 154 17 q 103 -14 124 -14 q 66 1 81 -14 q 51 38 51 17 l 51 1036 q 66 1074 51 1058 q 103 1089 81 1089 m 10 1283 q 1 1322 -3 1301 q 22 1356 4 1343 q 61 1363 40 1367 q 94 1343 82 1360 l 196 1197 q 205 1158 208 1179 q 183 1125 201 1138 q 153 1115 167 1115 q 111 1138 126 1115 l 10 1283 z "},"":{"ha":317,"x_min":-3,"x_max":208,"o":"m 51 1036 q 66 1074 51 1058 q 103 1089 81 1089 q 139 1074 124 1089 q 154 1036 154 1058 l 154 38 q 139 1 154 17 q 103 -14 124 -14 q 66 1 81 -14 q 51 38 51 17 l 51 1036 m 22 1125 q 1 1158 4 1138 q 10 1197 -3 1179 l 111 1343 q 144 1363 124 1360 q 183 1356 165 1367 q 205 1322 201 1343 q 196 1283 208 1301 l 94 1138 q 51 1115 76 1115 q 22 1125 36 1115 z "},"":{"ha":418,"x_min":-3,"x_max":310,"o":"m 206 38 q 190 1 206 17 q 153 -14 175 -14 q 117 1 132 -14 q 101 38 101 17 l 101 1036 q 117 1074 101 1058 q 153 1089 132 1089 q 190 1074 175 1089 q 206 1036 206 1058 l 206 38 m 22 1125 q 1 1158 4 1138 q 10 1197 -3 1179 l 111 1342 q 114 1347 111 1342 q 115 1349 115 1347 l 117 1349 q 118 1350 117 1350 l 119 1351 q 131 1360 122 1354 l 132 1360 q 149 1364 140 1364 l 150 1364 l 151 1364 l 153 1364 l 154 1364 l 156 1364 l 157 1364 l 158 1364 l 160 1364 q 174 1360 167 1364 l 176 1360 q 182 1356 179 1357 q 188 1351 185 1354 l 189 1350 q 190 1349 189 1350 q 193 1347 192 1347 q 196 1342 196 1342 l 297 1197 q 306 1158 310 1179 q 285 1125 303 1138 q 256 1115 269 1115 q 213 1138 228 1115 l 153 1222 l 94 1138 q 51 1115 76 1115 q 22 1125 36 1115 z "},"":{"ha":446,"x_min":0,"x_max":335,"o":"m 115 1036 q 131 1072 115 1057 q 167 1088 146 1088 q 204 1072 189 1088 q 219 1036 219 1057 l 219 38 q 204 1 219 17 q 167 -14 189 -14 q 131 1 146 -14 q 115 38 115 17 l 115 1036 m 51 1115 q 15 1130 31 1115 q 0 1167 0 1144 q 15 1203 0 1189 q 51 1218 31 1218 l 111 1218 q 147 1203 132 1218 q 163 1167 163 1189 q 147 1130 163 1144 q 111 1115 132 1115 l 51 1115 m 224 1115 q 188 1130 203 1115 q 172 1167 172 1144 q 188 1203 172 1189 q 224 1218 203 1218 l 283 1218 q 319 1203 304 1218 q 335 1167 335 1189 q 319 1130 335 1144 q 283 1115 304 1115 l 224 1115 z "},"":{"ha":893,"x_min":0,"x_max":782,"o":"m 729 -14 q 693 1 708 -14 q 678 38 678 17 l 678 697 q 655 809 678 757 q 593 900 632 861 q 502 961 554 939 q 390 983 450 983 q 278 961 331 983 q 188 900 226 939 q 126 809 149 861 q 103 699 103 757 l 104 699 l 104 692 l 104 38 q 89 1 104 17 q 51 -14 74 -14 q 15 1 31 -14 q 0 38 0 17 l 0 690 l 0 697 q 29 847 0 776 q 114 974 58 918 q 240 1058 169 1029 q 390 1088 311 1088 q 540 1058 469 1088 q 667 974 611 1029 q 752 847 722 918 q 782 697 782 776 l 782 38 q 767 1 782 17 q 729 -14 751 -14 m 518 1204 q 517 1201 518 1203 q 478 1165 499 1181 q 434 1140 458 1151 q 379 1129 410 1129 l 375 1129 l 372 1129 q 317 1140 342 1129 q 274 1165 292 1151 q 235 1201 251 1181 q 233 1204 233 1201 q 226 1243 222 1222 q 250 1275 231 1264 q 289 1282 268 1286 q 321 1258 310 1278 q 324 1254 322 1256 q 332 1247 325 1251 q 375 1232 349 1235 q 418 1247 403 1235 q 428 1254 426 1253 q 431 1258 429 1256 q 463 1282 442 1278 q 501 1275 483 1286 q 525 1243 521 1264 q 518 1204 529 1222 z "},"":{"ha":893,"x_min":0,"x_max":782,"o":"m 0 585 l 0 590 l 0 690 l 0 697 q 29 847 0 776 q 114 974 58 918 q 240 1058 169 1029 q 390 1088 311 1088 q 540 1058 469 1088 q 667 974 611 1029 q 752 847 722 918 q 782 697 782 776 l 782 438 l 782 432 l 782 383 l 782 376 q 752 226 782 297 q 667 100 722 156 q 540 15 611 44 q 390 -14 469 -14 q 240 15 311 -14 q 114 100 169 44 q 29 226 58 156 q 0 376 0 297 l 0 585 m 390 983 q 278 961 331 983 q 188 900 226 939 q 126 809 149 861 q 103 699 103 757 q 104 692 104 697 l 104 438 l 104 432 l 104 376 q 126 265 104 317 q 188 174 149 213 q 278 113 226 135 q 390 90 331 90 q 502 113 450 90 q 593 174 554 135 q 655 265 632 213 q 678 375 678 317 l 678 381 l 678 382 l 678 585 l 678 590 l 678 697 q 655 809 678 757 q 593 900 632 861 q 502 961 554 939 q 390 983 450 983 m 390 296 q 354 311 369 296 q 339 347 339 326 l 339 678 q 354 714 339 699 q 390 729 369 729 q 428 714 413 729 q 443 678 443 699 l 443 347 q 428 311 443 326 q 390 296 413 296 m 431 1110 q 388 1132 404 1110 l 286 1276 q 277 1315 274 1294 q 299 1349 281 1336 q 338 1358 317 1361 q 371 1336 358 1354 l 472 1190 q 481 1152 485 1174 q 460 1118 478 1131 q 431 1110 447 1110 z "},"":{"ha":893,"x_min":0,"x_max":782,"o":"m 667 100 q 540 15 611 44 q 390 -14 469 -14 q 241 15 311 -14 q 114 100 171 44 q 29 226 58 156 q 0 376 0 297 l 0 585 l 0 590 l 0 690 l 0 697 q 29 847 0 776 q 114 974 58 918 q 241 1058 171 1029 q 390 1088 311 1088 q 540 1058 469 1088 q 667 974 611 1029 q 752 847 722 918 q 782 697 782 776 l 782 438 l 782 432 l 782 383 l 782 376 q 752 226 782 297 q 667 100 722 156 m 104 376 q 126 265 104 317 q 188 174 149 213 q 278 113 226 135 q 390 90 331 90 q 502 113 450 90 q 593 174 554 135 q 655 265 632 213 q 678 375 678 317 l 678 382 l 678 585 l 678 590 l 678 697 q 655 809 678 757 q 593 900 632 861 q 502 961 554 939 q 390 983 450 983 q 280 961 332 983 q 188 900 228 939 q 126 809 149 861 q 103 699 103 757 l 104 699 l 104 693 l 104 692 l 104 438 l 104 432 l 104 376 m 443 347 q 428 311 443 326 q 390 296 413 296 q 354 311 369 296 q 339 347 339 326 l 339 678 q 354 714 339 699 q 390 729 369 729 q 428 714 413 729 q 443 678 443 699 l 443 347 m 471 1349 q 492 1315 489 1336 q 483 1276 496 1294 l 382 1132 q 363 1115 375 1121 q 340 1110 351 1110 q 310 1118 324 1110 q 288 1152 292 1131 q 297 1190 285 1174 l 399 1336 q 433 1358 411 1354 q 471 1349 454 1361 z "},"":{"ha":893,"x_min":0,"x_max":782,"o":"m 667 100 q 540 15 611 44 q 390 -14 469 -14 q 240 15 311 -14 q 114 100 169 44 q 29 226 58 156 q 0 376 0 297 l 0 585 l 0 590 l 0 690 l 0 697 q 29 847 0 776 q 114 974 58 918 q 240 1058 169 1029 q 390 1088 311 1088 q 540 1058 469 1088 q 667 974 611 1029 q 752 847 722 918 q 782 697 782 776 l 782 438 l 782 432 l 782 383 l 782 376 q 752 226 782 297 q 667 100 722 156 m 104 376 q 126 265 104 317 q 188 174 149 213 q 278 113 226 135 q 390 90 331 90 q 502 113 450 90 q 593 174 554 135 q 655 265 632 213 q 678 375 678 317 l 678 381 l 678 382 l 678 585 l 678 590 l 678 697 q 655 809 678 757 q 593 900 632 861 q 502 961 554 939 q 390 983 450 983 q 278 961 331 983 q 188 900 226 939 q 126 809 149 861 q 103 699 103 757 q 104 692 104 697 l 104 438 l 104 432 l 104 376 m 443 347 q 428 311 443 326 q 390 296 413 296 q 354 311 369 296 q 339 347 339 326 l 339 678 q 354 714 339 699 q 390 729 369 729 q 428 714 413 729 q 443 678 443 699 l 443 347 m 289 1110 q 260 1118 272 1110 q 238 1152 242 1131 q 247 1190 235 1174 l 347 1335 q 349 1338 349 1336 q 351 1340 350 1339 q 353 1342 353 1340 q 354 1343 354 1342 l 356 1343 q 357 1344 356 1344 q 363 1349 360 1347 q 368 1353 365 1350 l 369 1353 q 386 1357 378 1357 l 388 1357 q 389 1358 388 1358 l 390 1358 l 392 1358 l 393 1358 q 394 1357 393 1358 q 411 1353 403 1357 l 413 1353 l 414 1353 q 419 1349 417 1350 q 425 1344 422 1347 q 426 1343 425 1344 l 428 1343 l 428 1342 q 429 1340 429 1342 l 431 1340 q 433 1335 431 1338 l 535 1190 q 544 1152 547 1174 q 522 1118 540 1131 q 493 1110 507 1110 q 469 1115 481 1110 q 450 1132 457 1121 l 390 1215 l 332 1132 q 289 1110 315 1110 z "},"":{"ha":893,"x_min":0,"x_max":782,"o":"m 667 100 q 540 15 611 44 q 390 -14 469 -14 q 241 15 311 -14 q 114 100 171 44 q 29 226 58 156 q 0 376 0 297 l 0 585 l 0 590 l 0 690 l 0 697 q 29 847 0 776 q 114 974 58 918 q 241 1058 171 1029 q 390 1088 311 1088 q 540 1058 469 1088 q 667 974 611 1029 q 752 847 722 918 q 782 697 782 776 l 782 438 l 782 432 l 782 383 l 782 376 q 752 226 782 297 q 667 100 722 156 m 103 376 q 126 265 103 317 q 188 174 149 213 q 278 113 226 135 q 390 90 331 90 q 502 113 450 90 q 593 174 554 135 q 655 265 632 213 q 678 375 678 317 l 678 382 l 678 585 l 678 590 l 678 697 q 655 809 678 757 q 593 900 632 861 q 502 961 554 939 q 390 983 450 983 q 280 961 332 983 q 188 900 228 939 q 126 809 149 861 q 103 699 103 757 l 104 699 l 104 693 l 104 692 l 104 438 q 103 432 104 435 l 103 376 m 443 347 q 428 311 443 326 q 390 296 413 296 q 354 311 369 296 q 339 347 339 326 l 339 678 q 354 714 339 699 q 390 729 369 729 q 428 714 413 729 q 443 678 443 699 l 443 347 m 533 1206 q 532 1203 533 1204 q 493 1167 514 1182 q 449 1142 474 1153 q 394 1131 425 1131 l 390 1131 l 388 1131 q 332 1142 357 1131 q 289 1167 307 1153 q 250 1203 267 1182 q 249 1206 249 1203 q 242 1244 238 1224 q 265 1276 246 1265 q 304 1283 283 1288 q 336 1260 325 1279 q 339 1256 338 1257 q 347 1249 340 1253 q 390 1233 364 1236 q 433 1249 418 1236 q 443 1256 442 1254 q 446 1260 444 1257 q 478 1283 457 1279 q 517 1276 499 1288 q 540 1244 536 1265 q 533 1206 544 1224 z "},"":{"ha":893,"x_min":0,"x_max":782,"o":"m 390 1088 q 540 1058 469 1088 q 667 974 611 1029 q 752 847 722 918 q 782 697 782 776 l 782 438 l 782 432 l 782 383 l 782 376 q 752 226 782 297 q 667 100 722 156 q 540 15 611 44 q 390 -14 469 -14 q 241 15 311 -14 q 114 100 171 44 q 29 226 58 156 q 0 376 0 297 l 0 585 l 0 590 l 0 690 l 0 697 q 29 847 0 776 q 114 974 58 918 q 241 1058 171 1029 q 390 1088 311 1088 m 678 697 q 655 809 678 757 q 593 900 632 861 q 502 961 554 939 q 390 983 450 983 q 280 961 332 983 q 188 900 228 939 q 126 809 149 861 q 103 699 103 757 q 104 693 104 697 l 104 692 l 104 438 l 104 432 l 104 376 q 126 265 104 317 q 188 174 149 213 q 278 113 226 135 q 390 90 331 90 q 502 113 450 90 q 593 174 554 135 q 655 265 632 213 q 678 375 678 317 l 678 382 l 678 585 l 678 590 l 678 697 m 390 729 q 428 714 413 729 q 443 678 443 699 l 443 347 q 428 311 443 326 q 390 296 413 296 q 354 311 369 296 q 339 347 339 326 l 339 678 q 354 714 339 699 q 390 729 369 729 m 156 1161 q 170 1198 156 1183 q 207 1213 185 1213 l 265 1213 q 303 1198 288 1213 q 318 1161 318 1183 q 303 1124 318 1139 q 265 1110 288 1110 l 207 1110 q 170 1124 185 1110 q 156 1161 156 1139 m 515 1110 q 479 1124 494 1110 q 464 1161 464 1139 q 479 1198 464 1183 q 515 1213 494 1213 l 575 1213 q 611 1198 596 1213 q 626 1161 626 1183 q 611 1124 626 1139 q 575 1110 596 1110 l 515 1110 z "},"":{"ha":893,"x_min":0,"x_max":782,"o":"m 339 -10 q 114 100 208 7 q 29 227 58 157 q 0 376 0 297 l 0 585 l 0 590 l 0 690 l 0 697 q 29 847 0 776 q 114 974 58 918 q 240 1058 169 1029 q 390 1088 311 1088 q 540 1058 469 1088 q 667 974 611 1029 q 752 847 722 918 q 782 697 782 776 l 782 439 l 782 433 l 782 383 l 782 376 q 752 227 782 297 q 667 100 722 157 q 443 -10 574 7 l 443 -146 q 428 -183 443 -168 q 390 -199 413 -199 q 354 -183 369 -199 q 339 -146 339 -168 l 339 -10 m 103 376 q 121 276 103 324 q 171 192 139 229 q 246 129 203 154 q 339 94 289 104 l 339 678 q 354 715 339 700 q 390 729 369 729 q 428 715 413 729 q 443 678 443 700 l 443 94 q 536 129 493 104 q 610 192 579 154 q 660 276 642 229 q 678 375 678 322 l 678 382 l 678 585 l 678 590 l 678 697 q 655 809 678 757 q 593 900 632 861 q 502 962 554 939 q 390 985 450 985 q 280 963 332 985 q 188 901 228 940 q 126 810 149 863 q 103 699 103 758 l 104 699 l 104 693 l 104 692 l 104 439 q 103 432 104 435 l 103 376 z "},"":{"ha":893,"x_min":0,"x_max":782,"o":"m 667 100 q 540 15 611 44 q 390 -14 469 -14 q 240 15 311 -14 q 114 100 169 44 q 29 226 58 156 q 0 376 0 297 l 0 1036 q 15 1072 0 1057 q 51 1088 31 1088 q 88 1072 74 1088 q 103 1036 103 1057 l 103 376 q 126 265 103 317 q 188 174 149 213 q 278 113 226 135 q 390 90 331 90 q 502 113 450 90 q 593 174 554 135 q 655 265 632 213 q 678 375 678 317 l 678 382 l 678 1036 q 693 1072 678 1057 q 729 1088 708 1088 q 767 1072 751 1088 q 782 1036 782 1057 l 782 383 l 782 376 q 752 226 782 297 q 667 100 722 156 m 483 1190 q 492 1152 496 1174 q 471 1118 489 1131 q 442 1110 458 1110 q 399 1132 415 1110 l 297 1276 q 288 1315 285 1294 q 310 1349 292 1336 q 349 1358 328 1361 q 382 1336 369 1354 l 483 1190 z "},"":{"ha":893,"x_min":0,"x_max":782,"o":"m 390 -14 q 240 15 311 -14 q 114 100 169 44 q 29 226 58 156 q 0 376 0 297 l 0 1036 q 15 1072 0 1057 q 51 1088 31 1088 q 88 1072 74 1088 q 103 1036 103 1057 l 103 376 q 126 265 103 317 q 188 174 149 213 q 278 113 226 135 q 390 90 331 90 q 502 113 450 90 q 593 174 554 135 q 655 265 632 213 q 678 375 678 317 l 678 381 l 678 382 l 678 1036 q 693 1072 678 1057 q 729 1088 708 1088 q 766 1072 751 1088 q 781 1036 781 1057 l 781 383 q 782 376 782 382 q 752 226 782 297 q 667 100 722 156 q 540 15 611 44 q 390 -14 469 -14 m 471 1349 q 492 1315 489 1336 q 483 1276 496 1294 l 382 1132 q 363 1115 375 1121 q 340 1110 351 1110 q 310 1118 324 1110 q 288 1152 292 1131 q 297 1190 285 1174 l 399 1336 q 433 1358 411 1354 q 471 1349 454 1361 z "},"":{"ha":893,"x_min":0,"x_max":782,"o":"m 390 -14 q 240 15 311 -14 q 114 100 169 44 q 29 226 58 156 q 0 376 0 297 l 0 1036 q 15 1072 0 1057 q 51 1088 31 1088 q 88 1072 74 1088 q 103 1036 103 1057 l 103 376 q 126 265 103 317 q 188 174 149 213 q 278 113 226 135 q 390 90 331 90 q 502 113 450 90 q 593 174 554 135 q 655 265 632 213 q 678 375 678 317 l 678 382 l 678 1036 q 693 1072 678 1057 q 729 1088 708 1088 q 767 1072 751 1088 q 782 1036 782 1057 l 782 383 l 782 376 q 752 226 782 297 q 667 100 722 156 q 540 15 611 44 q 390 -14 469 -14 m 289 1110 q 260 1118 272 1110 q 238 1152 242 1131 q 247 1190 235 1174 l 347 1335 q 349 1338 349 1336 q 351 1340 350 1339 q 353 1342 353 1340 q 354 1343 354 1342 l 356 1343 q 357 1344 356 1344 q 369 1353 363 1350 q 372 1354 371 1354 q 385 1357 381 1357 l 386 1357 l 388 1357 q 389 1358 388 1358 l 390 1358 l 392 1358 l 393 1358 q 394 1357 393 1358 q 411 1353 403 1357 l 413 1353 l 414 1353 q 419 1349 417 1350 q 425 1344 422 1347 q 426 1343 425 1344 l 428 1343 l 428 1342 q 429 1340 429 1342 l 431 1340 q 433 1335 431 1338 l 535 1190 q 544 1152 547 1174 q 522 1118 540 1131 q 493 1110 507 1110 q 469 1115 481 1110 q 450 1132 457 1121 l 390 1215 l 332 1132 q 289 1110 315 1110 z "},"":{"ha":893,"x_min":0,"x_max":782,"o":"m 782 376 q 752 226 782 297 q 667 100 722 156 q 540 15 611 44 q 390 -14 469 -14 q 240 15 311 -14 q 114 100 169 44 q 29 226 58 156 q 0 376 0 297 l 0 1036 q 15 1072 0 1057 q 51 1088 31 1088 q 88 1072 74 1088 q 103 1036 103 1057 l 103 376 q 126 265 103 317 q 188 174 149 213 q 278 113 226 135 q 390 90 331 90 q 502 113 450 90 q 593 174 554 135 q 655 265 632 213 q 678 375 678 317 l 678 382 l 678 1036 q 693 1072 678 1057 q 729 1088 708 1088 q 767 1072 751 1088 q 782 1036 782 1057 l 782 383 l 782 376 m 207 1110 q 170 1124 185 1110 q 156 1161 156 1139 q 170 1198 156 1183 q 207 1213 185 1213 l 265 1213 q 303 1198 288 1213 q 318 1161 318 1183 q 303 1124 318 1139 q 265 1110 288 1110 l 207 1110 m 515 1110 q 479 1124 494 1110 q 464 1161 464 1139 q 479 1198 464 1183 q 515 1213 494 1213 l 575 1213 q 611 1198 596 1213 q 626 1161 626 1183 q 611 1124 626 1139 q 575 1110 596 1110 l 515 1110 z "},"":{"ha":831,"x_min":-4,"x_max":722,"o":"m 7 1008 q 1 1049 -4 1028 q 25 1081 6 1069 q 64 1087 43 1092 q 96 1063 85 1082 l 360 636 l 622 1063 q 654 1087 633 1082 q 694 1081 675 1092 q 717 1049 713 1069 q 711 1008 722 1028 l 411 522 l 411 38 q 396 1 411 17 q 360 -14 381 -14 q 322 1 338 -14 q 307 38 307 17 l 307 522 l 7 1008 m 367 1339 q 399 1360 378 1357 q 439 1351 421 1364 q 459 1318 456 1339 q 451 1279 463 1297 l 349 1135 q 307 1113 335 1113 q 276 1122 290 1113 q 256 1155 260 1133 q 264 1194 253 1176 l 367 1339 z "},"":{"ha":838,"x_min":0,"x_max":726,"o":"m 726 38 q 711 1 726 17 q 675 -14 696 -14 l 51 -14 l 50 -14 l 49 -14 l 47 -14 l 46 -14 l 44 -14 q 43 -13 43 -14 q 42 -12 43 -12 l 40 -12 l 38 -12 q 35 -11 36 -11 q 33 -10 33 -11 q 31 -10 32 -10 q 29 -9 29 -10 q 28 -8 29 -8 q 25 -6 25 -6 q 22 -4 24 -6 q 21 -3 21 -4 l 19 -3 q 18 -1 19 -3 l 17 0 q 15 1 17 0 q 14 3 14 1 q 11 4 13 4 l 11 6 l 10 7 q 8 8 10 7 l 8 10 l 7 11 l 7 13 q 6 14 6 13 l 6 15 q 4 17 6 15 l 4 18 q 3 19 4 19 l 3 21 q 1 24 3 22 l 1 26 l 1 28 l 0 29 l 0 31 l 0 32 l 0 33 l 0 35 l 0 36 l 0 38 q 1 51 0 47 q 3 53 1 53 q 4 59 3 56 q 7 65 6 63 l 575 985 l 178 985 q 142 1000 157 985 q 126 1036 126 1015 q 142 1074 126 1058 q 178 1089 157 1089 l 665 1089 q 694 1081 682 1089 q 718 1049 714 1069 q 711 1010 722 1028 l 144 90 l 675 90 q 711 75 696 90 q 726 38 726 60 m 422 1254 l 481 1339 q 514 1360 493 1357 q 553 1351 535 1364 q 574 1318 571 1339 q 565 1279 578 1297 l 464 1135 q 463 1132 464 1135 q 461 1131 461 1132 q 460 1131 461 1131 l 460 1129 l 458 1128 l 457 1128 q 456 1126 457 1126 q 455 1125 456 1125 q 454 1124 454 1125 l 453 1124 q 451 1122 453 1124 q 450 1121 450 1122 l 449 1121 q 447 1119 449 1119 q 446 1118 447 1119 l 444 1118 q 442 1117 444 1118 q 439 1115 442 1117 q 425 1113 431 1113 l 422 1113 l 421 1113 l 418 1113 q 404 1115 413 1113 q 401 1117 403 1117 q 399 1118 400 1118 l 397 1118 q 396 1119 397 1119 q 394 1121 396 1119 l 393 1121 q 392 1122 393 1121 q 390 1124 390 1122 l 389 1124 q 388 1125 389 1125 q 388 1126 388 1125 q 386 1128 386 1126 l 385 1128 l 383 1129 l 383 1131 q 382 1131 382 1131 q 381 1132 382 1132 q 379 1135 381 1133 l 278 1279 q 269 1318 265 1297 q 290 1351 272 1339 q 329 1360 308 1364 q 363 1339 350 1357 l 422 1254 z "},"":{"ha":692,"x_min":0,"x_max":581,"o":"m 581 719 l 581 718 l 581 715 l 581 713 l 581 711 l 581 710 q 579 708 579 710 l 579 707 l 579 706 q 578 704 579 704 l 578 703 l 578 701 l 576 700 l 576 699 q 575 697 576 697 l 575 696 q 574 693 574 694 q 572 692 572 693 l 147 88 l 531 88 q 566 72 551 88 q 581 36 581 57 q 566 1 581 15 q 531 -14 551 -14 l 50 -14 l 47 -14 l 46 -14 l 44 -14 q 40 -12 42 -14 l 38 -12 q 35 -11 38 -12 l 33 -11 l 32 -11 q 31 -10 32 -11 l 29 -10 q 28 -8 29 -10 l 26 -8 q 25 -7 26 -8 q 24 -6 24 -7 l 22 -6 q 21 -4 22 -4 q 19 -3 21 -4 q 18 -1 18 -3 l 17 -1 l 17 0 q 15 1 15 0 l 14 1 q 13 3 14 1 q 11 4 13 3 q 10 6 11 6 q 10 7 10 6 l 8 8 q 7 10 8 10 l 7 11 q 6 13 7 11 l 6 14 l 4 15 l 4 17 q 3 18 4 17 l 3 21 q 2 22 3 22 q 1 24 1 22 l 1 25 l 1 26 l 0 28 l 0 31 l 0 32 l 0 33 l 0 35 l 0 36 l 0 38 l 0 39 l 0 42 l 0 44 q 1 46 0 44 l 1 47 l 1 49 l 1 50 l 1 51 l 3 51 l 3 53 l 3 54 l 3 56 q 4 57 4 56 q 6 58 4 58 l 6 60 l 6 61 l 7 61 l 7 64 l 8 64 l 8 65 l 433 669 l 50 669 q 15 685 29 669 q 0 721 0 700 q 15 756 0 742 q 50 771 29 771 l 531 771 l 532 771 l 533 771 l 535 771 l 536 771 l 538 771 l 539 771 q 540 769 539 771 l 542 769 l 543 769 l 544 769 l 546 768 l 547 768 l 549 768 l 550 767 l 551 767 q 553 765 551 767 q 556 764 554 765 l 557 764 q 558 763 557 763 l 560 763 l 560 761 l 561 761 q 563 760 561 760 l 563 758 l 564 758 q 565 757 564 758 l 567 757 l 567 756 l 568 754 l 569 753 q 570 751 569 751 q 571 750 571 751 l 572 749 q 574 747 572 747 l 574 746 q 575 744 574 746 l 575 743 l 576 743 l 576 742 l 576 740 q 578 739 578 740 l 578 736 l 579 736 l 579 733 l 579 732 q 581 729 581 731 l 581 728 l 581 726 l 581 725 l 581 724 l 581 722 l 581 721 l 581 719 m 343 1014 q 375 1034 354 1031 q 414 1026 396 1038 q 434 993 431 1014 q 425 956 438 972 l 332 822 q 331 821 332 821 q 331 819 331 821 l 329 819 q 328 817 329 818 l 326 815 l 325 814 l 324 813 q 322 811 324 813 l 321 811 q 319 810 321 811 q 318 808 319 808 l 317 808 q 315 807 317 807 q 314 806 315 807 l 313 806 l 311 804 q 308 803 308 804 q 301 801 304 801 q 293 800 297 800 l 290 800 l 288 800 q 274 803 282 800 q 271 804 272 804 q 268 806 269 804 l 267 806 q 265 807 267 807 q 264 808 265 807 l 263 808 l 261 810 l 260 811 l 258 811 q 257 813 258 813 q 256 814 257 814 q 254 815 256 815 q 253 817 254 815 q 252 818 253 818 q 251 819 251 818 l 249 822 l 156 956 q 147 993 143 972 q 168 1026 150 1014 q 206 1034 185 1038 q 238 1014 226 1031 l 290 939 l 343 1014 z "},"":{"ha":919,"x_min":0,"x_max":782,"o":"m 390 478 q 426 463 411 478 q 442 428 442 449 l 442 300 q 426 265 442 279 q 390 250 411 250 q 355 265 369 250 q 340 300 340 279 l 340 428 q 355 463 340 449 q 390 478 369 478 m 731 765 q 767 751 753 765 q 782 715 782 736 l 782 376 l 782 36 q 767 1 782 15 q 731 -14 753 -14 q 695 1 710 -14 q 681 36 681 15 l 681 115 q 667 100 676 110 q 540 15 611 44 q 390 -14 469 -14 q 240 15 311 -14 q 114 100 169 44 q 31 225 60 156 q 0 372 1 294 l 0 375 l 0 376 l 0 379 q 31 526 1 457 q 114 650 60 596 q 241 735 171 706 q 390 764 311 764 q 540 735 469 764 q 667 650 611 706 q 674 643 671 647 q 681 636 678 639 l 681 715 q 695 751 681 736 q 731 765 710 765 m 390 88 q 503 110 450 88 q 595 172 556 133 q 658 263 635 211 q 681 375 681 315 q 658 488 681 435 q 595 579 635 540 q 503 641 556 618 q 390 664 450 664 q 281 642 332 664 q 190 582 229 619 q 126 494 150 544 q 101 385 103 443 l 101 382 q 100 375 101 376 q 123 263 100 315 q 185 172 146 211 q 278 110 225 133 q 390 88 331 88 m 303 946 q 294 983 290 963 q 315 1015 297 1004 q 353 1024 332 1028 q 385 1003 374 1021 l 479 869 q 487 832 490 853 q 467 800 483 811 q 438 790 456 790 q 396 813 411 790 l 303 946 z "},"":{"ha":919,"x_min":0,"x_max":782,"o":"m 390 478 q 426 463 411 478 q 442 428 442 449 l 442 300 q 426 265 442 279 q 390 250 411 250 q 355 265 369 250 q 340 300 340 279 l 340 428 q 355 463 340 449 q 390 478 369 478 m 782 36 q 767 1 782 15 q 731 -14 753 -14 q 695 1 710 -14 q 681 36 681 15 l 681 115 q 667 100 676 110 q 540 15 611 44 q 390 -14 469 -14 q 240 15 311 -14 q 114 100 169 44 q 31 225 60 156 q 0 372 1 294 l 0 375 l 0 376 l 0 379 q 31 526 1 457 q 114 650 60 596 q 241 735 171 706 q 390 764 311 764 q 540 735 469 764 q 667 650 611 706 q 674 643 671 647 q 681 636 678 639 l 681 715 q 695 751 681 736 q 731 765 710 765 q 767 751 753 765 q 782 715 782 736 l 782 376 l 782 36 m 390 88 q 503 110 450 88 q 595 172 556 133 q 658 263 635 211 q 681 375 681 315 q 658 488 681 435 q 595 579 635 540 q 503 641 556 618 q 390 664 450 664 q 281 642 332 664 q 190 582 229 619 q 126 494 150 544 q 101 385 103 443 l 101 382 q 100 375 101 376 q 123 263 100 315 q 185 172 146 211 q 278 110 225 133 q 390 88 331 88 m 315 801 q 294 833 297 813 q 303 871 290 854 l 396 1004 q 428 1026 408 1022 q 467 1017 449 1029 q 487 985 483 1006 q 479 947 490 964 l 385 814 q 344 792 371 792 q 315 801 326 792 z "},"":{"ha":919,"x_min":0,"x_max":782,"o":"m 390 465 q 426 451 411 465 q 442 415 442 436 l 442 288 q 426 252 442 267 q 390 238 411 238 q 355 252 369 238 q 340 288 340 267 l 340 415 q 355 451 340 436 q 390 465 369 465 m 731 -26 q 695 -11 710 -26 q 681 25 681 4 l 681 103 q 667 89 675 94 q 540 3 611 33 q 390 -26 469 -26 q 240 3 311 -26 q 114 89 169 33 q 31 213 60 143 q 0 361 1 283 l 0 363 l 0 364 l 0 367 q 31 514 1 444 q 114 638 60 583 q 241 724 171 694 q 390 753 311 753 q 540 724 469 753 q 667 638 611 694 q 681 624 675 632 l 681 703 q 695 738 681 724 q 731 753 710 753 q 767 738 753 753 q 782 703 782 724 l 782 364 l 782 25 q 767 -11 782 4 q 731 -26 753 -26 m 390 75 q 503 98 450 75 q 595 160 556 121 q 658 251 635 199 q 681 364 681 304 q 658 476 681 424 q 595 567 635 528 q 503 628 556 606 q 390 651 450 651 q 281 630 332 651 q 190 571 229 608 q 126 483 150 533 q 101 374 103 432 l 101 371 q 100 364 101 365 l 100 363 q 123 251 100 303 q 185 160 146 199 q 278 98 225 121 q 390 75 331 75 m 408 996 q 410 995 410 996 q 411 994 410 994 q 424 986 417 992 q 425 985 425 986 l 426 985 q 428 983 426 983 q 429 982 428 983 q 432 976 432 979 l 525 844 q 534 806 538 826 q 514 774 531 786 q 485 765 499 765 q 443 786 457 765 l 390 861 l 339 786 q 297 765 324 765 q 268 774 281 765 q 248 806 251 786 q 256 844 244 826 l 349 976 q 351 979 350 978 q 353 982 351 981 l 354 983 l 356 985 q 357 986 357 985 l 358 986 q 368 993 364 992 q 369 994 368 994 l 371 994 q 386 999 379 999 l 388 999 l 389 999 l 390 999 l 392 999 l 393 999 l 394 999 l 397 999 q 403 997 400 997 q 408 996 406 997 z "},"":{"ha":919,"x_min":0,"x_max":782,"o":"m 390 478 q 426 463 411 478 q 442 428 442 449 l 442 300 q 426 265 442 279 q 390 250 411 250 q 355 265 369 250 q 340 300 340 279 l 340 428 q 355 463 340 449 q 390 478 369 478 m 731 -14 q 695 1 710 -14 q 681 36 681 15 l 681 115 q 667 100 676 110 q 540 15 611 44 q 390 -14 469 -14 q 240 15 311 -14 q 114 100 169 44 q 31 225 60 156 q 0 372 1 294 l 0 375 l 0 376 l 0 379 q 31 526 1 457 q 114 650 60 596 q 241 735 171 706 q 390 764 311 764 q 540 735 469 764 q 667 650 611 706 q 674 643 671 647 q 681 636 678 639 l 681 715 q 695 751 681 736 q 731 765 710 765 q 767 751 753 765 q 782 715 782 736 l 782 376 l 782 36 q 767 1 782 15 q 731 -14 753 -14 m 390 88 q 503 110 450 88 q 595 172 556 133 q 658 263 635 211 q 681 375 681 315 q 658 488 681 435 q 595 579 635 540 q 503 641 556 618 q 390 664 450 664 q 281 642 332 664 q 190 582 229 619 q 126 494 150 544 q 101 385 103 443 l 101 382 q 100 375 101 376 q 123 263 100 315 q 185 172 146 211 q 278 110 225 133 q 390 88 331 88 m 539 879 q 538 878 539 878 q 538 876 538 878 q 499 840 519 856 q 455 815 479 826 q 400 804 431 804 l 397 804 l 393 804 q 338 815 363 804 q 294 840 313 826 q 256 876 272 856 q 255 878 256 878 q 254 879 254 878 q 247 918 243 897 q 271 950 251 939 q 310 957 289 961 q 342 933 331 953 q 344 929 342 931 q 354 922 344 928 q 397 908 372 908 q 440 922 419 908 q 445 926 443 925 q 449 929 447 926 q 451 933 450 931 q 483 957 463 953 q 522 950 504 961 q 546 918 542 939 q 539 879 550 897 z "},"":{"ha":919,"x_min":0,"x_max":782,"o":"m 390 478 q 426 463 411 478 q 442 428 442 449 l 442 300 q 426 265 442 279 q 390 250 411 250 q 355 265 369 250 q 340 300 340 279 l 340 428 q 355 463 340 449 q 390 478 369 478 m 731 -14 q 695 1 710 -14 q 681 36 681 15 l 681 115 q 667 100 676 110 q 540 15 611 44 q 390 -14 469 -14 q 240 15 311 -14 q 114 100 169 44 q 31 225 60 156 q 0 372 1 294 l 0 375 l 0 376 l 0 379 q 31 526 1 457 q 114 650 60 596 q 241 735 171 706 q 390 764 311 764 q 540 735 469 764 q 667 650 611 706 q 674 643 671 647 q 681 636 678 639 l 681 715 q 695 751 681 736 q 731 765 710 765 q 767 751 753 765 q 782 715 782 736 l 782 376 l 782 36 q 767 1 782 15 q 731 -14 753 -14 m 390 88 q 503 110 450 88 q 595 172 556 133 q 658 263 635 211 q 681 375 681 315 q 658 488 681 435 q 595 579 635 540 q 503 641 556 618 q 390 664 450 664 q 281 642 332 664 q 190 583 229 621 q 126 494 150 544 q 101 385 103 443 l 101 382 q 100 375 101 376 q 123 263 100 315 q 185 171 146 210 q 278 110 225 132 q 390 88 331 88 m 275 908 q 312 894 297 908 q 326 858 326 879 q 312 822 326 838 q 275 807 297 807 l 221 807 q 185 822 200 807 q 171 858 171 838 q 185 894 171 879 q 221 908 200 908 l 275 908 m 506 807 q 470 822 485 807 q 456 858 456 838 q 470 894 456 879 q 506 908 485 908 l 560 908 q 596 894 581 908 q 611 858 611 879 q 596 822 611 838 q 560 807 581 807 l 506 807 z "},"":{"ha":919,"x_min":0,"x_max":782,"o":"m 390 478 q 426 463 411 478 q 442 428 442 449 l 442 300 q 426 265 442 279 q 390 250 411 250 q 355 265 369 250 q 340 300 340 279 l 340 428 q 355 463 340 449 q 390 478 369 478 m 731 -14 q 695 1 710 -14 q 681 36 681 15 l 681 115 q 667 100 676 110 q 540 15 611 44 q 390 -14 469 -14 q 240 15 311 -14 q 114 100 169 44 q 31 225 60 156 q 0 372 1 294 l 0 375 l 0 376 l 0 379 q 31 526 1 457 q 114 650 60 596 q 241 735 171 706 q 390 764 311 764 q 540 735 469 764 q 667 650 611 706 q 674 643 671 647 q 681 636 678 639 l 681 715 q 695 751 681 736 q 731 765 710 765 q 767 751 753 765 q 782 715 782 736 l 782 376 l 782 36 q 767 1 782 15 q 731 -14 753 -14 m 390 88 q 503 110 450 88 q 595 172 556 133 q 658 263 635 211 q 681 375 681 315 q 658 488 681 435 q 595 579 635 540 q 503 641 556 618 q 390 664 450 664 q 281 642 332 664 q 190 582 229 619 q 126 494 150 544 q 101 385 103 443 l 101 382 q 100 375 101 376 q 123 263 100 315 q 185 172 146 211 q 278 110 225 133 q 390 88 331 88 m 390 1032 q 479 996 443 1032 q 515 908 515 960 q 479 819 515 856 q 390 783 443 783 q 303 819 339 783 q 267 908 267 856 q 303 996 267 960 q 390 1032 339 1032 m 390 885 q 414 908 414 885 q 408 925 414 918 q 390 932 401 932 q 374 925 381 932 q 367 908 367 918 q 374 891 367 897 q 390 885 381 885 z "},"":{"ha":778,"x_min":0,"x_max":679,"o":"m 389 661 q 276 638 329 661 q 185 576 224 615 q 123 484 146 536 q 100 372 100 432 q 123 260 100 313 q 185 167 146 207 q 277 105 225 128 q 389 82 329 82 q 499 104 447 82 q 593 167 551 126 q 628 182 608 182 q 664 167 649 182 q 679 131 679 151 q 664 96 679 111 q 564 22 619 50 q 446 -15 508 -6 l 446 -118 q 431 -153 446 -139 q 396 -168 417 -168 q 360 -153 375 -168 q 346 -118 346 -139 l 346 -17 q 114 96 211 -1 q 29 222 58 151 q 0 372 0 293 q 29 522 0 451 q 114 649 58 592 q 239 732 169 703 q 386 763 308 761 l 388 763 l 389 763 l 390 763 l 393 763 q 540 732 471 761 q 664 649 610 703 q 679 613 679 633 q 664 576 679 592 q 628 563 650 563 q 593 576 607 563 q 399 661 513 657 l 396 661 l 389 661 l 389 661 z "},"":{"ha":888,"x_min":0,"x_max":778,"o":"m 339 376 q 354 413 339 397 q 390 428 369 428 l 674 428 q 640 520 665 478 q 578 595 615 563 q 496 647 542 628 q 399 667 450 665 l 396 667 l 389 667 q 276 644 329 667 q 185 581 224 621 q 123 489 146 542 q 100 376 100 436 q 123 264 100 317 q 185 172 146 211 q 278 110 225 133 q 390 88 331 88 q 426 72 411 88 q 440 36 440 57 q 426 1 440 15 q 390 -14 411 -14 q 240 15 311 -14 q 114 100 169 44 q 29 227 58 157 q 0 376 0 297 q 29 526 0 456 q 114 653 58 597 q 239 738 169 708 q 386 768 308 767 l 388 768 l 389 768 l 390 768 l 393 768 q 540 738 471 767 q 664 653 610 708 q 749 527 719 597 q 778 378 778 457 l 778 376 q 763 341 778 356 q 728 326 749 326 l 390 326 q 354 341 369 326 q 339 376 339 356 m 321 1017 q 358 1025 338 1028 q 390 1004 379 1022 l 483 871 q 492 833 496 854 q 472 801 489 813 q 443 792 458 792 q 401 813 415 792 l 308 946 q 299 984 296 964 q 321 1017 303 1004 z "},"":{"ha":888,"x_min":0,"x_max":778,"o":"m 339 376 q 354 413 339 397 q 390 428 369 428 l 674 428 q 640 520 665 478 q 578 595 615 563 q 496 647 542 628 q 399 667 450 665 l 396 667 l 389 667 q 276 644 329 667 q 185 581 224 621 q 123 489 146 542 q 100 376 100 436 q 123 264 100 317 q 185 172 146 211 q 278 110 225 133 q 390 88 331 88 q 426 72 411 88 q 440 36 440 57 q 426 1 440 15 q 390 -14 411 -14 q 240 15 311 -14 q 114 100 169 44 q 29 227 58 157 q 0 376 0 297 q 29 526 0 456 q 114 653 58 597 q 239 738 169 708 q 386 768 308 767 l 388 768 l 389 768 l 390 768 l 393 768 q 540 738 471 767 q 664 653 610 708 q 749 527 719 597 q 778 378 778 457 l 778 376 q 763 341 778 356 q 728 326 749 326 l 390 326 q 354 341 369 326 q 339 376 339 356 m 472 1017 q 492 984 489 1004 q 483 946 496 964 l 390 813 q 349 792 375 792 q 319 801 333 792 q 299 833 303 813 q 308 871 296 854 l 401 1004 q 434 1025 414 1022 q 472 1017 454 1028 z "},"":{"ha":888,"x_min":0,"x_max":778,"o":"m 339 376 q 354 413 339 397 q 390 428 369 428 l 674 428 q 640 520 665 478 q 578 595 615 563 q 496 647 542 628 q 399 667 450 665 l 396 667 l 389 667 q 276 644 329 667 q 185 581 224 621 q 123 489 146 542 q 100 376 100 436 q 123 264 100 317 q 185 172 146 211 q 278 110 225 133 q 390 88 331 88 q 426 72 411 88 q 440 36 440 57 q 426 1 440 15 q 390 -14 411 -14 q 240 15 311 -14 q 114 100 169 44 q 29 227 58 157 q 0 376 0 297 q 29 526 0 456 q 114 653 58 597 q 239 738 169 708 q 386 768 308 767 l 388 768 l 389 768 l 390 768 l 393 768 q 540 738 471 767 q 664 653 610 708 q 749 526 719 597 q 778 376 778 456 q 763 341 778 356 q 728 326 749 326 l 390 326 q 354 341 369 326 q 339 376 339 356 m 525 871 q 533 833 536 854 q 513 801 529 813 q 483 792 501 792 q 460 797 472 792 q 442 813 449 801 l 390 888 l 338 813 q 296 792 322 792 q 267 801 281 792 q 247 833 250 813 q 254 871 243 854 l 349 1004 q 351 1008 349 1006 l 353 1010 l 354 1011 l 356 1013 l 357 1014 q 363 1017 360 1017 q 368 1021 365 1018 q 369 1022 368 1021 q 386 1025 381 1025 q 388 1026 386 1025 l 389 1026 l 390 1026 l 392 1026 l 393 1025 l 394 1025 l 396 1025 q 410 1022 401 1025 q 413 1021 411 1021 q 417 1017 415 1018 q 422 1014 419 1017 q 425 1013 424 1013 l 425 1011 q 426 1010 425 1011 q 428 1008 426 1010 l 432 1004 l 525 871 z "},"":{"ha":888,"x_min":0,"x_max":778,"o":"m 393 768 q 540 738 471 767 q 664 653 610 708 q 749 526 719 597 q 778 376 778 456 q 763 341 778 356 q 728 326 749 326 l 390 326 q 354 341 369 326 q 339 376 339 356 q 354 413 339 397 q 390 428 369 428 l 674 428 q 640 520 665 478 q 578 595 615 563 q 496 647 542 628 q 399 667 450 665 l 396 667 l 389 667 q 276 644 329 667 q 185 581 224 621 q 123 489 146 542 q 100 376 100 436 q 123 264 100 317 q 185 172 146 211 q 278 110 225 133 q 390 88 331 88 q 426 72 411 88 q 440 36 440 57 q 426 1 440 15 q 390 -14 411 -14 q 240 15 311 -14 q 114 100 169 44 q 29 227 58 157 q 0 376 0 297 q 29 526 0 456 q 114 653 58 597 q 239 738 169 708 q 386 768 308 767 l 388 768 l 389 768 l 390 768 l 393 768 m 281 911 q 316 896 301 911 q 331 860 331 881 q 316 824 331 839 q 281 810 301 810 l 226 810 q 191 824 206 810 q 176 860 176 839 q 191 896 176 881 q 226 911 206 911 l 281 911 m 565 911 q 601 896 586 911 q 615 860 615 881 q 601 824 615 839 q 565 810 586 810 l 511 810 q 476 824 490 810 q 461 860 461 839 q 476 896 461 881 q 511 911 490 911 l 565 911 z "},"":{"ha":243,"x_min":-3,"x_max":197,"o":"m 149 36 q 133 1 149 15 q 97 -14 118 -14 q 62 1 76 -14 q 47 36 47 15 l 47 714 q 62 749 47 735 q 97 764 76 764 q 133 749 118 764 q 149 714 149 735 l 149 36 m 186 868 q 194 831 197 851 q 174 799 190 810 q 144 789 163 789 q 103 811 118 789 l 10 944 q 1 982 -3 961 q 22 1014 4 1003 q 60 1023 39 1026 q 92 1001 81 1019 l 186 868 z "},"":{"ha":243,"x_min":-3,"x_max":197,"o":"m 97 764 q 133 749 118 764 q 147 714 147 735 l 147 36 q 133 1 147 15 q 97 -14 118 -14 q 62 1 76 -14 q 47 36 47 15 l 47 714 q 62 749 47 735 q 97 764 76 764 m 172 1014 q 194 982 190 1003 q 185 944 197 961 l 92 811 q 50 789 76 789 q 21 799 35 789 q 1 831 4 810 q 8 868 -3 851 l 103 1001 q 135 1023 114 1019 q 172 1014 156 1026 z "},"":{"ha":346,"x_min":-3,"x_max":292,"o":"m 144 767 q 180 752 165 767 q 194 717 194 738 l 194 36 q 180 1 194 15 q 144 -14 165 -14 q 108 1 124 -14 q 93 36 93 15 l 93 717 q 108 752 93 738 q 144 767 124 767 m 279 853 q 288 815 292 836 q 267 783 285 794 q 239 774 256 774 q 197 796 213 774 l 144 869 l 92 796 q 50 774 76 774 q 21 783 35 774 q 1 815 4 794 q 8 853 -3 836 l 103 986 q 104 989 104 988 q 106 992 104 990 q 107 992 107 992 q 108 993 107 993 l 108 994 l 110 994 q 111 996 110 996 q 124 1004 117 1001 q 125 1005 125 1004 q 126 1006 125 1006 q 138 1008 135 1008 l 140 1008 l 142 1008 l 143 1008 l 144 1008 l 146 1008 l 149 1008 q 164 1004 157 1008 q 167 1003 165 1004 q 172 1000 169 1001 q 178 996 175 999 l 179 994 l 181 994 l 181 993 q 182 992 182 993 q 184 989 183 990 q 186 986 185 988 l 279 853 z "},"":{"ha":374,"x_min":0,"x_max":314,"o":"m 157 767 q 192 752 178 767 q 207 717 207 738 l 207 36 q 192 1 207 15 q 157 -14 178 -14 q 122 1 136 -14 q 107 36 107 15 l 107 717 q 122 752 107 738 q 157 767 136 767 m 156 825 q 141 788 156 803 q 104 774 126 774 l 50 774 q 15 788 29 774 q 0 825 0 803 q 15 860 0 846 q 50 875 29 875 l 104 875 q 141 860 126 875 q 156 825 156 846 m 264 875 q 299 860 285 875 q 314 825 314 846 q 299 788 314 803 q 264 774 285 774 l 210 774 q 174 788 189 774 q 158 825 158 803 q 174 860 158 846 q 210 875 189 875 l 264 875 z "},"":{"ha":869,"x_min":0,"x_max":783,"o":"m 669 649 q 753 523 724 593 q 783 375 783 453 l 783 374 l 783 372 l 783 371 l 783 369 q 753 222 783 292 q 669 97 724 151 q 442 -15 574 1 l 442 -117 q 427 -152 442 -137 q 392 -167 413 -167 q 356 -152 371 -167 q 342 -117 342 -137 l 342 -15 q 219 22 276 -7 q 115 97 161 50 q 31 222 60 151 q 0 369 1 292 l 0 371 l 0 372 l 0 374 l 0 376 q 31 524 1 454 q 115 649 60 593 q 242 733 171 704 q 392 763 313 763 q 542 733 471 763 q 669 649 613 704 m 442 88 q 537 122 493 96 q 613 185 581 147 q 663 272 644 224 q 682 372 682 319 q 659 485 682 432 q 597 576 636 538 q 504 638 557 615 q 392 661 451 661 q 281 640 333 661 q 190 580 229 618 q 126 491 150 542 q 101 382 103 440 l 101 379 l 101 372 q 119 270 101 318 q 170 185 138 222 q 247 122 203 147 q 342 88 290 96 l 342 425 q 356 460 342 446 q 392 475 371 475 q 427 460 413 475 q 442 425 442 446 l 442 88 z "},"":{"ha":829,"x_min":0,"x_max":726,"o":"m 364 768 q 503 741 438 768 q 621 663 568 714 q 699 545 672 611 q 726 406 726 479 l 726 36 q 712 1 726 15 q 676 -14 697 -14 q 641 1 656 -14 q 626 36 626 15 l 626 406 q 606 508 626 460 q 549 591 585 556 q 466 647 514 626 q 364 668 418 668 q 262 647 310 668 q 178 591 214 626 q 122 508 143 556 q 101 407 101 461 l 101 401 l 101 400 l 101 36 q 87 1 101 15 q 51 -14 72 -14 q 15 1 29 -14 q 0 36 0 15 l 0 399 l 0 406 q 27 545 0 479 q 107 663 54 611 q 224 741 158 714 q 364 768 290 768 m 507 869 q 506 867 507 867 q 467 831 488 846 q 423 806 447 817 q 368 794 399 794 l 365 794 l 361 794 q 306 806 331 794 q 263 831 281 817 q 224 867 240 846 q 222 869 224 867 q 215 908 211 888 q 239 940 219 929 q 278 947 257 951 q 310 924 299 942 q 313 919 310 921 q 322 913 313 918 q 365 897 338 900 q 408 913 392 900 q 413 916 411 915 q 417 919 415 917 q 419 924 418 921 q 451 947 431 942 q 490 940 472 951 q 514 908 510 929 q 507 869 518 888 z "},"":{"ha":869,"x_min":0,"x_max":783,"o":"m 669 649 q 753 523 724 593 q 783 375 783 453 l 783 374 l 783 372 l 783 371 l 783 369 q 753 222 783 292 q 669 97 724 151 q 442 -15 574 1 l 442 -117 q 427 -152 442 -137 q 392 -167 413 -167 q 356 -152 371 -167 q 342 -117 342 -137 l 342 -15 q 219 22 276 -7 q 115 97 161 50 q 31 222 60 151 q 0 369 1 292 l 0 371 l 0 372 l 0 374 l 0 376 q 31 524 1 454 q 115 649 60 593 q 242 733 171 704 q 392 763 313 763 q 542 733 471 763 q 669 649 613 704 m 442 88 q 537 122 493 96 q 613 185 581 147 q 663 272 644 224 q 682 372 682 319 q 659 485 682 432 q 597 576 636 538 q 504 638 557 615 q 392 661 451 661 q 281 640 333 661 q 190 580 229 618 q 126 491 150 542 q 101 382 103 440 l 101 379 l 101 372 q 119 270 101 318 q 170 185 138 222 q 247 122 203 147 q 342 88 290 96 l 342 425 q 356 460 342 446 q 392 475 371 475 q 427 460 413 475 q 442 425 442 446 l 442 88 z "},"":{"ha":892,"x_min":0,"x_max":783,"o":"m 392 479 q 427 465 413 479 q 442 429 442 450 l 442 300 q 427 265 442 279 q 392 250 413 250 q 356 265 371 250 q 342 300 342 279 l 342 429 q 356 465 342 450 q 392 479 371 479 m 669 651 q 753 527 724 597 q 783 379 783 457 l 783 378 l 783 376 l 783 375 l 783 374 q 753 226 783 296 q 669 100 724 156 q 542 15 613 44 q 392 -14 471 -14 q 242 15 313 -14 q 115 100 171 44 q 31 226 60 156 q 0 374 1 296 l 0 375 l 0 376 l 0 378 l 0 381 q 31 528 1 458 q 115 651 60 597 q 242 738 171 708 q 392 767 313 767 q 542 738 471 767 q 669 651 613 708 m 392 88 q 504 110 451 88 q 597 172 557 133 q 659 264 636 211 q 682 376 682 317 q 659 489 682 436 q 597 581 636 542 q 504 642 557 619 q 392 665 451 665 q 281 644 333 665 q 190 584 229 622 q 126 495 150 546 q 101 386 103 444 l 101 383 l 101 376 q 124 264 101 317 q 187 172 147 211 q 279 110 226 133 q 392 88 332 88 m 315 1025 q 354 1033 333 1036 q 386 1013 375 1029 l 481 879 q 488 840 492 861 q 468 808 485 819 q 439 799 454 799 q 397 821 413 799 l 303 954 q 295 992 292 972 q 315 1025 299 1013 z "},"":{"ha":892,"x_min":0,"x_max":783,"o":"m 392 479 q 427 465 413 479 q 442 429 442 450 l 442 300 q 427 265 442 279 q 392 250 413 250 q 356 265 371 250 q 342 300 342 279 l 342 429 q 356 465 342 450 q 392 479 371 479 m 669 651 q 753 527 724 597 q 783 379 783 457 l 783 378 l 783 376 l 783 375 l 783 374 q 753 226 783 296 q 669 100 724 156 q 542 15 613 44 q 392 -14 471 -14 q 242 15 313 -14 q 115 100 171 44 q 31 226 60 156 q 0 374 1 296 l 0 375 l 0 376 l 0 378 l 0 381 q 31 528 1 458 q 115 651 60 597 q 242 738 171 708 q 392 767 313 767 q 542 738 471 767 q 669 651 613 708 m 392 88 q 504 110 451 88 q 597 172 557 133 q 659 264 636 211 q 682 376 682 317 q 659 489 682 436 q 597 581 636 542 q 504 642 557 619 q 392 665 451 665 q 281 644 333 665 q 190 584 229 622 q 126 495 150 546 q 101 386 103 444 l 101 383 l 101 376 q 124 264 101 317 q 187 172 147 211 q 279 110 226 133 q 392 88 332 88 m 397 1013 q 430 1033 410 1029 q 468 1025 450 1036 q 488 992 485 1013 q 481 954 492 972 l 386 821 q 344 799 371 799 q 315 808 329 799 q 295 840 299 819 q 303 879 292 861 l 397 1013 z "},"":{"ha":892,"x_min":0,"x_max":783,"o":"m 392 479 q 427 465 413 479 q 442 429 442 450 l 442 300 q 427 265 442 279 q 392 250 413 250 q 356 265 371 250 q 342 300 342 279 l 342 429 q 356 465 342 450 q 392 479 371 479 m 669 651 q 753 527 724 597 q 783 379 783 457 l 783 378 l 783 376 l 783 375 l 783 374 q 753 226 783 296 q 669 100 724 156 q 542 15 613 44 q 392 -14 471 -14 q 242 15 313 -14 q 115 100 171 44 q 31 226 60 156 q 0 374 1 296 l 0 375 l 0 376 l 0 378 l 0 381 q 31 528 1 458 q 115 651 60 597 q 242 738 171 708 q 392 767 313 767 q 542 738 471 767 q 669 651 613 708 m 392 88 q 504 110 451 88 q 597 172 557 133 q 659 264 636 211 q 682 376 682 317 q 659 489 682 436 q 597 581 636 542 q 504 642 557 619 q 392 665 451 665 q 281 644 333 665 q 190 584 229 622 q 126 495 150 546 q 101 386 103 444 l 101 382 l 101 376 q 124 264 101 317 q 187 172 147 211 q 279 110 226 133 q 392 88 332 88 m 428 1004 q 432 999 431 1001 l 525 867 q 534 828 538 849 q 513 796 531 807 q 485 786 501 786 q 443 808 458 786 l 390 883 l 338 808 q 296 786 322 786 q 267 796 281 786 q 247 828 250 807 q 256 867 243 849 l 349 999 q 351 1004 351 1004 q 353 1005 353 1004 q 354 1006 353 1006 l 354 1007 l 356 1007 q 357 1008 356 1008 q 368 1017 360 1011 l 369 1017 q 386 1021 378 1021 l 388 1021 l 389 1021 l 390 1021 l 392 1021 l 394 1021 q 411 1017 403 1021 l 413 1017 q 418 1013 415 1014 q 424 1008 421 1011 q 425 1007 424 1008 l 426 1007 l 426 1006 q 428 1004 428 1006 z "},"":{"ha":892,"x_min":0,"x_max":783,"o":"m 392 479 q 427 465 413 479 q 442 429 442 450 l 442 300 q 427 265 442 279 q 392 250 413 250 q 356 265 371 250 q 342 300 342 279 l 342 429 q 356 465 342 450 q 392 479 371 479 m 669 651 q 753 527 724 597 q 783 379 783 457 l 783 378 l 783 376 l 783 375 l 783 374 q 753 226 783 296 q 669 100 724 156 q 542 15 613 44 q 392 -14 471 -14 q 242 15 313 -14 q 115 100 171 44 q 31 226 60 156 q 0 374 1 296 l 0 375 l 0 376 l 0 378 l 0 381 q 31 528 1 458 q 115 651 60 597 q 242 738 171 708 q 392 767 313 767 q 542 738 471 767 q 669 651 613 708 m 392 88 q 504 110 451 88 q 597 172 557 133 q 659 264 636 211 q 682 376 682 317 q 659 489 682 436 q 597 581 636 542 q 504 642 557 619 q 392 665 451 665 q 281 644 333 665 q 190 584 229 622 q 126 495 150 546 q 101 386 103 444 l 101 383 l 101 376 q 124 264 101 317 q 187 172 147 211 q 279 110 226 133 q 392 88 332 88 m 535 869 q 532 867 532 867 q 494 831 515 846 q 451 806 476 817 q 394 794 425 794 l 392 794 l 389 794 q 332 806 357 794 q 289 831 307 817 q 251 867 268 846 q 249 869 251 867 q 242 908 238 888 q 265 940 247 929 q 306 947 285 951 q 338 924 326 942 q 340 919 339 921 q 349 913 342 917 q 392 897 365 900 q 435 913 418 900 q 439 916 438 915 q 443 919 440 917 q 447 924 446 921 q 478 947 458 942 q 518 940 499 951 q 541 908 536 929 q 535 869 546 888 z "},"":{"ha":892,"x_min":0,"x_max":783,"o":"m 392 479 q 427 465 413 479 q 442 429 442 450 l 442 300 q 427 265 442 279 q 392 250 413 250 q 356 265 371 250 q 342 300 342 279 l 342 429 q 356 465 342 450 q 392 479 371 479 m 669 651 q 753 527 724 597 q 783 379 783 457 l 783 378 l 783 376 l 783 375 l 783 374 q 753 226 783 296 q 669 100 724 156 q 542 15 613 44 q 392 -14 471 -14 q 242 15 313 -14 q 115 100 171 44 q 31 226 60 156 q 0 374 1 296 l 0 375 l 0 376 l 0 378 l 0 381 q 31 528 1 458 q 115 651 60 597 q 242 738 171 708 q 392 767 313 767 q 542 738 471 767 q 669 651 613 708 m 392 88 q 504 110 451 88 q 597 172 557 133 q 659 264 636 211 q 682 376 682 317 q 659 489 682 436 q 597 581 636 542 q 504 642 557 619 q 392 665 451 665 q 281 644 333 665 q 190 584 229 622 q 126 495 150 546 q 101 386 103 444 l 101 383 l 101 376 q 124 264 101 317 q 187 172 147 211 q 279 110 226 133 q 392 88 332 88 m 222 818 q 186 833 201 818 q 171 868 171 847 q 186 903 171 889 q 222 918 201 918 l 276 918 q 312 903 297 918 q 326 868 326 889 q 312 833 326 847 q 276 818 297 818 l 222 818 m 561 918 q 597 903 582 918 q 613 868 613 889 q 597 833 613 847 q 561 818 582 818 l 507 818 q 472 833 486 818 q 457 868 457 847 q 472 903 457 889 q 507 918 486 918 l 561 918 z "},"":{"ha":829,"x_min":0,"x_max":726,"o":"m 726 356 l 726 349 q 699 210 726 275 q 621 92 672 144 q 503 13 568 40 q 364 -14 438 -14 q 224 13 290 -14 q 107 92 158 40 q 27 210 54 144 q 0 349 0 275 l 0 718 q 15 753 0 739 q 50 768 29 768 q 86 753 71 768 q 101 718 101 739 l 101 349 q 122 247 101 294 q 178 163 143 199 q 262 108 214 128 q 364 88 310 88 q 466 108 418 88 q 549 163 514 128 q 606 247 585 199 q 626 349 626 294 q 625 350 625 349 l 625 354 l 625 718 q 640 753 625 739 q 676 768 656 768 q 712 753 697 768 q 726 718 726 739 l 726 356 m 288 1000 q 325 1008 304 1011 q 358 988 346 1004 l 451 854 q 460 815 464 836 q 439 783 457 794 q 411 774 428 774 q 369 796 385 774 l 275 929 q 267 967 264 946 q 288 1000 269 988 z "},"":{"ha":829,"x_min":0,"x_max":726,"o":"m 726 356 l 726 349 q 699 210 726 275 q 621 92 672 144 q 503 13 568 40 q 364 -14 438 -14 q 224 13 290 -14 q 107 92 158 40 q 27 210 54 144 q 0 349 0 275 l 0 718 q 15 753 0 739 q 50 768 29 768 q 86 753 71 768 q 101 718 101 739 l 101 349 q 122 247 101 294 q 178 163 143 199 q 262 108 214 128 q 364 88 310 88 q 466 108 418 88 q 549 163 514 128 q 606 247 585 199 q 626 349 626 294 q 626 351 626 350 q 625 354 625 351 l 625 718 q 640 753 625 739 q 676 768 656 768 q 712 753 697 768 q 726 718 726 739 l 726 356 m 367 988 q 400 1008 379 1004 q 438 1000 421 1011 q 459 967 456 988 q 450 929 463 946 l 356 796 q 315 774 340 774 q 286 783 297 774 q 265 815 268 794 q 274 854 261 836 l 367 988 z "},"":{"ha":829,"x_min":0,"x_max":726,"o":"m 726 356 l 726 349 q 699 210 726 275 q 621 92 672 144 q 503 13 568 40 q 364 -14 438 -14 q 224 13 290 -14 q 107 92 158 40 q 27 210 54 144 q 0 349 0 275 l 0 718 q 15 753 0 739 q 50 768 29 768 q 86 753 71 768 q 101 718 101 739 l 101 349 q 122 247 101 294 q 178 163 143 199 q 262 108 214 128 q 364 88 310 88 q 466 108 418 88 q 549 163 514 128 q 606 247 585 199 q 626 349 626 294 q 625 350 625 349 l 625 354 l 625 718 q 640 753 625 739 q 676 768 656 768 q 712 753 697 768 q 726 718 726 739 l 726 356 m 240 783 q 220 815 224 794 q 228 854 217 836 l 322 986 q 325 992 322 989 q 326 993 326 992 q 328 994 328 993 l 329 994 q 331 996 329 996 q 343 1004 336 1001 q 344 1006 344 1004 l 346 1006 q 357 1008 351 1008 l 360 1008 l 361 1008 l 363 1008 l 364 1008 l 365 1008 l 367 1008 l 368 1008 q 383 1004 376 1008 l 385 1004 q 386 1003 385 1004 q 392 1000 389 1001 q 397 996 394 999 l 399 994 l 400 993 l 401 992 q 406 986 404 989 l 499 854 q 508 815 511 836 q 486 783 504 794 q 457 774 475 774 q 415 796 433 774 l 364 871 l 311 796 q 269 774 296 774 q 240 783 254 774 z "},"":{"ha":829,"x_min":0,"x_max":726,"o":"m 726 356 l 726 349 q 699 210 726 275 q 621 92 672 144 q 503 13 568 40 q 364 -14 438 -14 q 224 13 290 -14 q 107 92 158 40 q 27 210 54 144 q 0 349 0 275 l 0 718 q 15 753 0 739 q 50 768 29 768 q 86 753 71 768 q 101 718 101 739 l 101 349 q 122 247 101 294 q 178 163 143 199 q 262 108 214 128 q 364 88 310 88 q 466 108 418 88 q 549 163 514 128 q 606 247 585 199 q 626 349 626 294 q 625 350 625 349 l 625 354 l 625 718 q 640 753 625 739 q 676 768 656 768 q 712 753 697 768 q 726 718 726 739 l 726 356 m 143 868 q 158 903 143 889 q 193 918 172 918 l 249 918 q 284 903 269 918 q 299 868 299 889 q 284 833 299 847 q 249 818 269 818 l 193 818 q 158 833 172 818 q 143 868 143 847 m 479 818 q 443 833 458 818 q 428 868 428 847 q 443 903 428 889 q 479 918 458 918 l 533 918 q 569 903 554 918 q 583 868 583 889 q 569 833 583 847 q 533 818 554 818 l 479 818 z "},"":{"ha":688,"x_min":0,"x_max":611,"o":"m 51 490 q 15 505 29 490 q 0 542 0 519 q 15 578 0 563 q 51 593 29 593 l 560 593 q 596 578 581 593 q 611 542 611 563 q 596 505 611 519 q 560 490 581 490 l 51 490 l 51 490 z "},"":{"ha":639,"x_min":-3,"x_max":607,"o":"m 583 760 q 603 727 600 747 q 596 689 607 707 l 117 7 q 75 -14 101 -14 q 47 -4 58 -14 q 26 28 29 7 q 35 65 22 49 l 240 360 l 8 689 q 1 727 -3 707 q 21 760 4 747 q 60 767 39 771 q 92 747 81 764 l 303 447 l 513 747 q 545 767 525 764 q 583 760 565 771 m 321 989 q 353 1010 332 1007 q 390 1001 374 1014 q 412 969 408 989 q 403 931 415 949 l 310 797 q 268 776 294 776 q 239 785 251 776 q 219 817 222 797 q 226 856 215 838 l 321 989 z "},"":{"ha":639,"x_min":-3,"x_max":607,"o":"m 583 760 q 603 727 600 747 q 596 689 607 707 l 117 7 q 75 -14 101 -14 q 47 -4 58 -14 q 26 28 29 7 q 35 65 22 49 l 240 360 l 8 689 q 1 727 -3 707 q 21 760 4 747 q 60 767 39 771 q 92 747 81 764 l 303 447 l 513 747 q 545 767 525 764 q 583 760 565 771 m 119 819 q 84 834 99 819 q 69 869 69 849 q 84 906 69 890 q 119 921 99 921 l 174 921 q 210 906 196 921 q 225 869 225 890 q 210 834 225 849 q 174 819 196 819 l 119 819 m 460 921 q 495 906 481 921 q 510 869 510 890 q 495 834 510 849 q 460 819 481 819 l 406 819 q 369 834 385 819 q 354 869 354 849 q 369 906 354 890 q 406 921 385 921 l 460 921 z "},"":{"ha":744,"x_min":-4,"x_max":722,"o":"m 694 1081 q 717 1049 713 1069 q 711 1008 722 1028 l 411 522 l 411 38 q 396 1 411 17 q 360 -14 381 -14 q 322 1 338 -14 q 307 38 307 17 l 307 522 l 7 1008 q 1 1049 -4 1028 q 25 1081 6 1069 q 64 1087 43 1092 q 96 1063 85 1082 l 360 636 l 622 1063 q 654 1087 633 1082 q 694 1081 675 1092 m 175 1113 q 139 1128 154 1113 q 124 1164 124 1143 q 139 1201 124 1186 q 175 1217 154 1217 l 235 1217 q 271 1201 256 1217 q 286 1164 286 1186 q 271 1128 286 1143 q 235 1113 256 1113 l 175 1113 m 485 1113 q 447 1128 463 1113 q 432 1164 432 1143 q 447 1201 432 1186 q 485 1217 463 1217 l 543 1217 q 580 1201 565 1217 q 594 1164 594 1186 q 580 1128 594 1143 q 543 1113 565 1113 l 485 1113 z "},"":{"ha":640,"x_min":0,"x_max":599,"o":"m 351 1003 q 385 1023 364 1019 q 422 1015 406 1026 q 442 983 439 1003 q 435 944 446 963 l 342 811 q 339 808 342 811 q 338 806 338 807 l 336 806 q 335 804 336 806 l 333 803 l 331 800 q 329 799 329 800 l 328 799 q 326 797 328 799 q 325 797 325 797 q 324 796 325 796 l 322 796 l 322 794 q 319 793 321 794 l 317 793 q 310 790 314 790 q 303 789 306 790 l 301 789 l 300 789 l 299 789 l 296 789 q 289 790 293 790 q 282 793 285 790 l 279 793 q 276 794 278 794 l 276 796 l 275 796 q 274 797 274 796 q 272 797 274 797 q 271 799 271 797 l 269 799 q 268 800 269 799 l 265 803 l 264 804 q 263 806 263 804 l 261 806 q 260 808 261 807 q 257 811 257 811 l 164 944 q 156 983 153 963 q 176 1015 160 1003 q 214 1023 193 1026 q 247 1003 235 1019 l 299 928 l 351 1003 m 511 497 q 576 400 554 454 q 599 285 599 346 q 576 171 599 225 q 511 74 554 117 q 414 8 468 31 q 299 -14 360 -14 q 185 8 239 -14 q 88 74 131 31 q 22 171 44 117 q 0 285 0 225 l 0 290 q 16 326 1 311 q 50 340 31 340 q 87 325 72 340 q 101 289 101 310 l 101 283 q 117 207 101 243 q 159 144 132 171 q 222 103 186 118 q 299 88 258 88 q 376 103 340 88 q 440 145 413 118 q 482 208 467 172 q 497 285 497 244 q 482 363 497 326 q 440 426 467 399 q 376 468 413 453 q 300 483 340 483 l 297 483 q 172 528 224 485 q 110 624 128 565 q 111 736 93 679 q 137 765 118 756 q 175 768 156 775 q 205 742 194 761 q 208 704 215 724 q 206 651 199 676 q 236 606 214 625 q 300 585 261 586 l 301 585 q 415 562 361 585 q 511 497 469 539 z "},"":{"ha":851,"x_min":0,"x_max":740,"o":"m 371 1253 l 429 1338 q 463 1359 442 1356 q 501 1350 483 1363 q 523 1317 519 1338 q 514 1278 526 1296 l 413 1133 q 411 1131 413 1132 l 408 1128 q 407 1126 408 1126 q 406 1125 407 1125 q 404 1124 406 1125 l 403 1122 q 400 1121 401 1121 l 400 1119 l 399 1119 q 397 1118 399 1118 q 396 1117 397 1118 l 394 1117 l 393 1117 q 392 1115 393 1115 l 390 1115 q 388 1114 390 1114 q 374 1111 379 1111 l 371 1111 l 368 1111 l 367 1111 q 353 1114 361 1111 q 350 1115 350 1114 q 347 1117 347 1115 l 346 1117 l 344 1117 q 343 1118 344 1118 q 342 1119 343 1118 l 340 1119 l 340 1121 q 339 1122 339 1121 l 338 1122 l 336 1124 q 335 1125 335 1124 q 333 1126 335 1125 q 332 1128 333 1126 q 331 1131 331 1129 l 329 1131 q 328 1133 329 1131 l 226 1278 q 217 1317 214 1296 q 239 1350 221 1338 q 278 1359 257 1363 q 311 1338 299 1356 l 371 1253 m 632 618 q 713 498 685 565 q 740 356 740 431 q 713 214 740 281 q 632 94 685 147 q 513 14 579 42 q 371 -14 446 -14 q 228 14 296 -14 q 108 94 161 42 q 28 214 56 147 q 0 356 0 281 l 0 363 q 15 399 0 383 q 51 414 31 414 q 89 399 74 414 q 104 361 104 383 q 103 356 104 357 l 103 354 q 124 251 103 300 q 182 167 146 203 q 267 111 218 132 q 371 90 315 90 q 474 111 425 90 q 559 168 522 132 q 617 253 596 204 q 638 356 638 301 q 617 460 638 411 q 560 544 596 508 q 475 601 524 581 q 371 622 426 622 q 367 624 368 622 q 215 676 279 625 q 158 747 179 707 q 132 835 136 788 q 141 925 128 881 q 185 1006 154 969 q 256 1064 215 1043 q 342 1089 297 1085 q 431 1080 388 1093 q 513 1036 475 1067 q 532 1001 529 1022 q 519 964 535 981 q 485 945 506 947 q 447 957 464 943 q 402 981 426 974 q 353 986 378 989 q 305 972 328 983 q 265 940 282 961 q 264 938 264 939 q 235 844 231 897 q 282 757 242 792 q 371 726 314 729 l 372 726 q 513 699 447 726 q 632 618 579 671 z "},"A":{"ha":893,"x_min":0,"x_max":782,"o":"m 0 713 q 29 862 0 792 q 114 989 58 932 q 242 1074 171 1044 q 392 1103 313 1103 q 541 1074 471 1103 q 668 989 611 1044 q 753 862 724 932 q 782 713 782 792 l 782 51 q 767 15 782 31 q 731 0 753 0 q 694 15 708 0 q 679 51 679 31 l 679 713 q 656 824 679 772 q 594 915 633 876 q 503 976 556 954 q 392 999 451 999 q 279 976 332 999 q 188 915 226 954 q 126 824 149 876 q 103 713 103 772 q 103 710 103 711 q 104 707 104 710 l 104 706 l 104 51 q 89 15 104 31 q 51 0 74 0 q 15 15 31 0 q 0 51 0 31 l 0 706 l 0 713 m 339 382 q 354 418 339 403 q 392 433 369 433 q 428 418 413 433 q 443 382 443 403 l 443 51 q 428 15 443 31 q 392 0 413 0 q 354 15 369 0 q 339 51 339 31 l 339 382 z "},"C":{"ha":893,"x_min":0,"x_max":782,"o":"m 0 568 l 0 701 l 0 708 q 29 858 0 788 q 114 985 58 929 q 241 1069 171 1040 q 390 1099 311 1099 q 540 1069 469 1099 q 668 985 611 1040 q 753 858 724 929 q 782 708 782 788 q 767 672 782 686 q 731 657 751 657 q 694 672 708 657 q 679 708 679 686 q 656 820 679 768 q 594 911 633 872 q 503 973 556 950 q 390 996 450 996 q 278 973 331 996 q 188 911 226 950 q 126 820 149 872 q 103 710 103 768 l 103 708 l 103 703 l 103 568 l 103 375 l 103 369 l 103 368 q 126 258 103 310 q 188 167 149 206 q 278 105 226 128 q 390 82 331 82 q 503 105 450 82 q 594 167 556 128 q 656 258 633 206 q 679 369 679 310 q 694 406 679 392 q 731 421 708 421 q 767 406 751 421 q 782 369 782 392 q 753 219 782 290 q 668 93 724 149 q 540 8 611 38 q 390 -21 469 -21 q 241 8 311 -21 q 114 93 171 38 q 29 219 58 149 q 0 369 0 290 l 0 376 l 0 568 z "},"B":{"ha":893,"x_min":0,"x_max":782,"o":"m 0 382 l 0 843 q 1 854 0 851 q 23 946 3 903 q 76 1020 43 989 q 153 1069 110 1051 q 246 1088 197 1088 l 247 1088 q 342 1068 297 1088 q 419 1015 386 1049 q 472 938 453 982 q 492 843 492 893 q 476 758 492 800 q 668 653 586 733 q 753 526 724 597 q 782 376 782 456 l 782 375 q 753 226 782 296 q 668 100 724 156 q 541 15 611 44 q 392 -15 471 -15 q 242 15 313 -15 q 114 100 171 44 q 29 226 58 156 q 0 375 0 296 l 0 382 m 246 985 q 191 974 217 985 q 146 943 165 963 q 115 898 126 924 q 104 843 104 872 q 103 833 104 836 l 104 382 l 104 381 q 103 378 104 379 q 103 375 103 376 q 126 263 103 315 q 188 172 149 211 q 279 111 226 133 q 392 89 332 89 q 503 111 451 89 q 594 172 556 133 q 656 263 633 211 q 679 375 679 315 l 679 376 q 657 486 679 435 q 597 576 635 538 q 508 639 560 615 q 399 664 457 663 q 395 663 396 664 q 392 663 394 663 q 358 676 372 663 q 340 721 338 693 l 340 722 q 356 753 343 740 q 388 843 388 792 q 376 898 388 872 q 347 943 365 924 q 302 974 328 963 q 247 985 276 985 l 246 985 z "}}}
